<svg xmlns="http://www.w3.org/2000/svg" xmlns:xlink="http://www.w3.org/1999/xlink" width="500" zoomAndPan="magnify" viewBox="0 0 375 374.999991" height="500" preserveAspectRatio="xMidYMid meet" version="1.0"><defs><g/><clipPath id="992e83342a"><path d="M 120 210 L 138 210 L 138 226.695312 L 120 226.695312 Z M 120 210 " clip-rule="nonzero"/></clipPath><clipPath id="88da4209c8"><path d="M 87 210 L 105 210 L 105 226.695312 L 87 226.695312 Z M 87 210 " clip-rule="nonzero"/></clipPath><clipPath id="6b3535c785"><path d="M 67.878906 154 L 138 154 L 138 208 L 67.878906 208 Z M 67.878906 154 " clip-rule="nonzero"/></clipPath><clipPath id="60588ced3e"><path d="M 110 147.945312 L 146.628906 147.945312 L 146.628906 185 L 110 185 Z M 110 147.945312 " clip-rule="nonzero"/></clipPath><clipPath id="38dd02d5fd"><path d="M 109.035156 146.5 L 148.433594 146.5 L 148.433594 185.898438 L 109.035156 185.898438 Z M 109.035156 146.5 " clip-rule="nonzero"/></clipPath><clipPath id="95da5340c5"><path d="M 128.734375 146.5 C 117.855469 146.5 109.035156 155.320312 109.035156 166.199219 C 109.035156 177.078125 117.855469 185.898438 128.734375 185.898438 C 139.617188 185.898438 148.433594 177.078125 148.433594 166.199219 C 148.433594 155.320312 139.617188 146.5 128.734375 146.5 Z M 128.734375 146.5 " clip-rule="nonzero"/></clipPath><clipPath id="bc9e53de28"><path d="M 110.480469 147.945312 L 146.988281 147.945312 L 146.988281 184.453125 L 110.480469 184.453125 Z M 110.480469 147.945312 " clip-rule="nonzero"/></clipPath><clipPath id="bc5a126b3c"><path d="M 128.734375 147.945312 C 118.652344 147.945312 110.480469 156.117188 110.480469 166.199219 C 110.480469 176.28125 118.652344 184.453125 128.734375 184.453125 C 138.816406 184.453125 146.988281 176.28125 146.988281 166.199219 C 146.988281 156.117188 138.816406 147.945312 128.734375 147.945312 Z M 128.734375 147.945312 " clip-rule="nonzero"/></clipPath><clipPath id="18e8642e94"><path d="M 118 157.988281 L 139.734375 157.988281 L 139.734375 174.488281 L 118 174.488281 Z M 118 157.988281 " clip-rule="nonzero"/></clipPath></defs><rect x="-37.5" width="450" fill="#ffffff" y="-37.499999" height="449.999989" fill-opacity="1"/><rect x="-37.5" width="450" fill="#ffffff" y="-37.499999" height="449.999989" fill-opacity="1"/><g clip-path="url(#992e83342a)"><path fill="#053262" d="M 137.09375 218.804688 C 137.09375 219.347656 137.039062 219.882812 136.933594 220.414062 C 136.828125 220.945312 136.671875 221.460938 136.464844 221.960938 C 136.257812 222.457031 136.003906 222.933594 135.703125 223.382812 C 135.402344 223.832031 135.0625 224.25 134.679688 224.632812 C 134.296875 225.015625 133.878906 225.355469 133.429688 225.65625 C 132.980469 225.957031 132.503906 226.210938 132.003906 226.417969 C 131.503906 226.625 130.988281 226.78125 130.460938 226.886719 C 129.929688 226.992188 129.394531 227.046875 128.851562 227.046875 C 128.3125 227.046875 127.773438 226.992188 127.246094 226.886719 C 126.714844 226.78125 126.199219 226.625 125.699219 226.417969 C 125.199219 226.210938 124.722656 225.957031 124.273438 225.65625 C 123.824219 225.355469 123.410156 225.015625 123.027344 224.632812 C 122.644531 224.25 122.300781 223.832031 122 223.382812 C 121.699219 222.933594 121.445312 222.457031 121.238281 221.960938 C 121.03125 221.460938 120.875 220.945312 120.769531 220.414062 C 120.664062 219.882812 120.613281 219.347656 120.613281 218.804688 C 120.613281 218.265625 120.664062 217.730469 120.769531 217.199219 C 120.875 216.667969 121.03125 216.152344 121.238281 215.652344 C 121.445312 215.152344 121.699219 214.679688 122 214.226562 C 122.300781 213.777344 122.644531 213.363281 123.027344 212.980469 C 123.410156 212.597656 123.824219 212.253906 124.273438 211.953125 C 124.722656 211.652344 125.199219 211.398438 125.699219 211.191406 C 126.199219 210.984375 126.714844 210.828125 127.246094 210.722656 C 127.773438 210.617188 128.3125 210.566406 128.851562 210.566406 C 129.394531 210.566406 129.929688 210.617188 130.460938 210.722656 C 130.988281 210.828125 131.503906 210.984375 132.003906 211.191406 C 132.503906 211.398438 132.980469 211.652344 133.429688 211.953125 C 133.878906 212.253906 134.296875 212.597656 134.679688 212.980469 C 135.0625 213.363281 135.402344 213.777344 135.703125 214.226562 C 136.003906 214.679688 136.257812 215.152344 136.464844 215.652344 C 136.671875 216.152344 136.828125 216.667969 136.933594 217.199219 C 137.039062 217.730469 137.09375 218.265625 137.09375 218.804688 Z M 137.09375 218.804688 " fill-opacity="1" fill-rule="nonzero"/></g><g clip-path="url(#88da4209c8)"><path fill="#053262" d="M 104.132812 218.804688 C 104.132812 219.347656 104.082031 219.882812 103.972656 220.414062 C 103.867188 220.945312 103.710938 221.460938 103.503906 221.960938 C 103.296875 222.457031 103.042969 222.933594 102.746094 223.382812 C 102.445312 223.832031 102.101562 224.25 101.71875 224.632812 C 101.335938 225.015625 100.921875 225.355469 100.472656 225.65625 C 100.019531 225.957031 99.546875 226.210938 99.046875 226.417969 C 98.546875 226.625 98.03125 226.78125 97.5 226.886719 C 96.96875 226.992188 96.433594 227.046875 95.894531 227.046875 C 95.351562 227.046875 94.816406 226.992188 94.285156 226.886719 C 93.753906 226.78125 93.238281 226.625 92.738281 226.417969 C 92.238281 226.210938 91.765625 225.957031 91.316406 225.65625 C 90.867188 225.355469 90.449219 225.015625 90.066406 224.632812 C 89.683594 224.25 89.34375 223.832031 89.042969 223.382812 C 88.742188 222.933594 88.488281 222.457031 88.28125 221.960938 C 88.074219 221.460938 87.917969 220.945312 87.8125 220.414062 C 87.707031 219.882812 87.652344 219.347656 87.652344 218.804688 C 87.652344 218.265625 87.707031 217.730469 87.8125 217.199219 C 87.917969 216.667969 88.074219 216.152344 88.28125 215.652344 C 88.488281 215.152344 88.742188 214.679688 89.042969 214.226562 C 89.34375 213.777344 89.683594 213.363281 90.066406 212.980469 C 90.449219 212.597656 90.867188 212.253906 91.316406 211.953125 C 91.765625 211.652344 92.238281 211.398438 92.738281 211.191406 C 93.238281 210.984375 93.753906 210.828125 94.285156 210.722656 C 94.816406 210.617188 95.351562 210.566406 95.894531 210.566406 C 96.433594 210.566406 96.96875 210.617188 97.5 210.722656 C 98.03125 210.828125 98.546875 210.984375 99.046875 211.191406 C 99.546875 211.398438 100.019531 211.652344 100.472656 211.953125 C 100.921875 212.253906 101.335938 212.597656 101.71875 212.980469 C 102.101562 213.363281 102.445312 213.777344 102.746094 214.226562 C 103.042969 214.679688 103.296875 215.152344 103.503906 215.652344 C 103.710938 216.152344 103.867188 216.667969 103.972656 217.199219 C 104.082031 217.730469 104.132812 218.265625 104.132812 218.804688 Z M 104.132812 218.804688 " fill-opacity="1" fill-rule="nonzero"/></g><g clip-path="url(#6b3535c785)"><path fill="#053262" d="M 135.445312 207.269531 L 97.40625 207.269531 C 91.925781 207.269531 87.167969 203.371094 86.09375 198 L 78.0625 157.832031 L 69.527344 157.832031 C 68.617188 157.832031 67.878906 157.09375 67.878906 156.183594 C 67.878906 155.273438 68.617188 154.535156 69.527344 154.535156 L 79.414062 154.535156 C 80.199219 154.535156 80.875 155.089844 81.027344 155.859375 L 89.328125 197.347656 C 90.09375 201.1875 93.492188 203.972656 97.40625 203.972656 L 135.445312 203.972656 C 136.355469 203.972656 137.09375 204.710938 137.09375 205.621094 C 137.09375 206.53125 136.355469 207.269531 135.445312 207.269531 Z M 135.445312 207.269531 " fill-opacity="1" fill-rule="nonzero"/></g><path fill="#053262" d="M 140.296875 185.117188 C 139.804688 184.828125 139.203125 184.808594 138.695312 185.074219 C 135.617188 186.679688 132.304688 187.496094 128.851562 187.496094 C 117.039062 187.496094 107.441406 178.5625 107.457031 166.480469 C 107.457031 166.457031 107.476562 166.140625 107.476562 166.121094 C 107.492188 165.667969 107.316406 165.226562 106.996094 164.90625 C 106.675781 164.585938 106.230469 164.414062 105.78125 164.421875 L 82.660156 164.421875 C 82.179688 164.4375 81.726562 164.664062 81.425781 165.039062 C 81.125 165.414062 81 165.898438 81.089844 166.375 L 86.035156 192.742188 C 86.179688 193.523438 86.859375 194.085938 87.652344 194.085938 L 132.917969 194.085938 C 137.066406 194.085938 140.582031 190.984375 141.09375 186.867188 C 141.101562 186.785156 141.101562 186.578125 141.101562 186.496094 C 141.089844 185.929688 140.785156 185.410156 140.296875 185.117188 Z M 140.296875 185.117188 " fill-opacity="1" fill-rule="nonzero"/><g clip-path="url(#60588ced3e)"><path fill="#053262" d="M 128.851562 147.945312 C 118.855469 147.945312 110.726562 156.074219 110.726562 166.070312 C 110.726562 176.066406 118.855469 184.199219 128.851562 184.199219 C 138.847656 184.199219 146.980469 176.066406 146.980469 166.070312 C 146.980469 156.074219 138.847656 147.945312 128.851562 147.945312 Z M 139.90625 160.644531 L 126.722656 173.828125 C 126.398438 174.148438 125.976562 174.3125 125.554688 174.3125 C 125.132812 174.3125 124.710938 174.148438 124.390625 173.828125 L 117.796875 167.238281 C 117.15625 166.59375 117.15625 165.550781 117.796875 164.90625 C 118.441406 164.265625 119.484375 164.265625 120.128906 164.90625 L 125.554688 170.332031 L 137.574219 158.316406 C 138.214844 157.671875 139.261719 157.671875 139.902344 158.316406 C 140.546875 158.957031 140.550781 160 139.90625 160.644531 Z M 139.90625 160.644531 " fill-opacity="1" fill-rule="nonzero"/></g><g clip-path="url(#38dd02d5fd)"><g clip-path="url(#95da5340c5)"><path fill="#ffffff" d="M 109.035156 146.5 L 148.433594 146.5 L 148.433594 185.898438 L 109.035156 185.898438 Z M 109.035156 146.5 " fill-opacity="1" fill-rule="nonzero"/></g></g><g clip-path="url(#bc9e53de28)"><g clip-path="url(#bc5a126b3c)"><path fill="#00bf63" d="M 110.480469 147.945312 L 146.988281 147.945312 L 146.988281 184.453125 L 110.480469 184.453125 Z M 110.480469 147.945312 " fill-opacity="1" fill-rule="nonzero"/></g></g><g clip-path="url(#18e8642e94)"><path fill="#ffffff" d="M 138.085938 157.996094 C 137.75 158.003906 137.464844 158.128906 137.226562 158.371094 L 124.359375 171.242188 L 120.242188 167.125 C 120.125 167.003906 119.992188 166.910156 119.835938 166.84375 C 119.683594 166.777344 119.519531 166.742188 119.351562 166.738281 C 119.183594 166.738281 119.023438 166.769531 118.867188 166.832031 C 118.710938 166.894531 118.574219 166.988281 118.457031 167.105469 C 118.335938 167.226562 118.246094 167.363281 118.183594 167.519531 C 118.121094 167.671875 118.089844 167.835938 118.089844 168.003906 C 118.089844 168.171875 118.125 168.332031 118.191406 168.484375 C 118.257812 168.640625 118.351562 168.777344 118.472656 168.890625 L 123.476562 173.894531 C 123.59375 174.011719 123.726562 174.101562 123.882812 174.164062 C 124.035156 174.226562 124.195312 174.257812 124.359375 174.257812 C 124.523438 174.257812 124.683594 174.226562 124.835938 174.164062 C 124.992188 174.101562 125.125 174.011719 125.242188 173.894531 L 138.996094 160.140625 C 139.179688 159.960938 139.296875 159.746094 139.351562 159.492188 C 139.402344 159.238281 139.375 158.992188 139.277344 158.757812 C 139.175781 158.519531 139.015625 158.332031 138.800781 158.191406 C 138.582031 158.050781 138.34375 157.988281 138.085938 157.996094 Z M 138.085938 157.996094 " fill-opacity="1" fill-rule="nonzero"/></g><g fill="#053262" fill-opacity="1"><g transform="translate(153.903114, 179.999988)"><g><path d="M 10.734375 -16.5 L 10.734375 -13.203125 L 4.953125 -13.203125 L 4.953125 -9.921875 L 10.296875 -9.921875 L 10.296875 -6.625 L 4.953125 -6.625 L 4.953125 0 L 1.203125 0 L 1.203125 -16.5 Z M 10.734375 -16.5 "/></g></g></g><g fill="#053262" fill-opacity="1"><g transform="translate(166.178644, 179.999988)"><g><path d="M 9.578125 -16.5 L 16.234375 0 L 12.203125 0 L 10.984375 -3.296875 L 4.703125 -3.296875 L 3.484375 0 L -0.5625 0 L 6.09375 -16.5 Z M 9.703125 -6.59375 L 7.859375 -11.40625 L 7.8125 -11.40625 L 5.984375 -6.59375 Z M 9.703125 -6.59375 "/></g></g></g><g fill="#053262" fill-opacity="1"><g transform="translate(182.792457, 179.999988)"><g><path d="M 7.28125 -16.796875 C 8.175781 -16.796875 9.050781 -16.664062 9.90625 -16.40625 C 10.757812 -16.144531 11.390625 -15.890625 11.796875 -15.640625 L 12.40625 -15.234375 L 10.875 -12.234375 C 10.757812 -12.316406 10.59375 -12.421875 10.375 -12.546875 C 10.164062 -12.671875 9.765625 -12.835938 9.171875 -13.046875 C 8.585938 -13.265625 8.046875 -13.375 7.546875 -13.375 C 6.910156 -13.375 6.421875 -13.238281 6.078125 -12.96875 C 5.742188 -12.707031 5.578125 -12.351562 5.578125 -11.90625 C 5.578125 -11.675781 5.65625 -11.460938 5.8125 -11.265625 C 5.976562 -11.078125 6.253906 -10.867188 6.640625 -10.640625 C 7.023438 -10.421875 7.363281 -10.242188 7.65625 -10.109375 C 7.945312 -9.984375 8.398438 -9.785156 9.015625 -9.515625 C 10.085938 -9.066406 11 -8.453125 11.75 -7.671875 C 12.5 -6.890625 12.875 -6.003906 12.875 -5.015625 C 12.875 -4.066406 12.703125 -3.238281 12.359375 -2.53125 C 12.023438 -1.832031 11.5625 -1.28125 10.96875 -0.875 C 10.375 -0.476562 9.71875 -0.1875 9 0 C 8.28125 0.195312 7.5 0.296875 6.65625 0.296875 C 5.9375 0.296875 5.226562 0.222656 4.53125 0.078125 C 3.84375 -0.0664062 3.265625 -0.25 2.796875 -0.46875 C 2.328125 -0.6875 1.90625 -0.898438 1.53125 -1.109375 C 1.164062 -1.328125 0.894531 -1.507812 0.71875 -1.65625 L 0.453125 -1.875 L 2.34375 -5.046875 C 2.5 -4.910156 2.71875 -4.738281 3 -4.53125 C 3.28125 -4.320312 3.773438 -4.046875 4.484375 -3.703125 C 5.203125 -3.359375 5.832031 -3.1875 6.375 -3.1875 C 7.96875 -3.1875 8.765625 -3.722656 8.765625 -4.796875 C 8.765625 -5.023438 8.707031 -5.234375 8.59375 -5.421875 C 8.476562 -5.617188 8.273438 -5.8125 7.984375 -6 C 7.703125 -6.195312 7.453125 -6.351562 7.234375 -6.46875 C 7.015625 -6.582031 6.65625 -6.753906 6.15625 -6.984375 C 5.65625 -7.222656 5.285156 -7.398438 5.046875 -7.515625 C 4.046875 -8.015625 3.269531 -8.632812 2.71875 -9.375 C 2.175781 -10.113281 1.90625 -10.910156 1.90625 -11.765625 C 1.90625 -13.242188 2.453125 -14.453125 3.546875 -15.390625 C 4.640625 -16.328125 5.882812 -16.796875 7.28125 -16.796875 Z M 7.28125 -16.796875 "/></g></g></g><g fill="#053262" fill-opacity="1"><g transform="translate(197.168737, 179.999988)"><g><path d="M 4.953125 -6.625 L 4.953125 0 L 1.203125 0 L 1.203125 -16.5 L 4.953125 -16.5 L 4.953125 -9.921875 L 10.28125 -9.921875 L 10.28125 -16.5 L 14.046875 -16.5 L 14.046875 0 L 10.28125 0 L 10.28125 -6.625 Z M 4.953125 -6.625 "/></g></g></g><g fill="#053262" fill-opacity="1"><g transform="translate(213.342719, 179.999988)"><g><path d="M 4.953125 -16.5 L 4.953125 0 L 1.203125 0 L 1.203125 -16.5 Z M 4.953125 -16.5 "/></g></g></g><g fill="#053262" fill-opacity="1"><g transform="translate(220.44029, 179.999988)"><g><path d="M 0.453125 -8.265625 C 0.453125 -10.648438 1.265625 -12.664062 2.890625 -14.3125 C 4.523438 -15.96875 6.488281 -16.796875 8.78125 -16.796875 C 11.082031 -16.796875 13.039062 -15.972656 14.65625 -14.328125 C 16.269531 -12.679688 17.078125 -10.660156 17.078125 -8.265625 C 17.078125 -5.847656 16.28125 -3.816406 14.6875 -2.171875 C 13.101562 -0.523438 11.132812 0.296875 8.78125 0.296875 C 6.363281 0.296875 4.367188 -0.515625 2.796875 -2.140625 C 1.234375 -3.773438 0.453125 -5.816406 0.453125 -8.265625 Z M 4.515625 -8.265625 C 4.515625 -7.390625 4.644531 -6.59375 4.90625 -5.875 C 5.175781 -5.164062 5.644531 -4.566406 6.3125 -4.078125 C 6.976562 -3.585938 7.800781 -3.34375 8.78125 -3.34375 C 10.175781 -3.34375 11.226562 -3.820312 11.9375 -4.78125 C 12.65625 -5.738281 13.015625 -6.898438 13.015625 -8.265625 C 13.015625 -9.609375 12.648438 -10.765625 11.921875 -11.734375 C 11.203125 -12.703125 10.15625 -13.1875 8.78125 -13.1875 C 7.414062 -13.1875 6.363281 -12.703125 5.625 -11.734375 C 4.882812 -10.765625 4.515625 -9.609375 4.515625 -8.265625 Z M 4.515625 -8.265625 "/></g></g></g><g fill="#053262" fill-opacity="1"><g transform="translate(238.913367, 179.999988)"><g><path d="M 4.953125 -10.234375 L 4.953125 0 L 1.203125 0 L 1.203125 -16.5 L 4.953125 -16.5 L 11.515625 -6.265625 L 11.5625 -6.265625 L 11.5625 -16.5 L 15.3125 -16.5 L 15.3125 0 L 11.5625 0 L 5 -10.234375 Z M 4.953125 -10.234375 "/></g></g></g><g fill="#053262" fill-opacity="1"><g transform="translate(153.903114, 203.999987)"><g><path d="M 7.28125 -16.796875 C 8.175781 -16.796875 9.050781 -16.664062 9.90625 -16.40625 C 10.757812 -16.144531 11.390625 -15.890625 11.796875 -15.640625 L 12.40625 -15.234375 L 10.875 -12.234375 C 10.757812 -12.316406 10.59375 -12.421875 10.375 -12.546875 C 10.164062 -12.671875 9.765625 -12.835938 9.171875 -13.046875 C 8.585938 -13.265625 8.046875 -13.375 7.546875 -13.375 C 6.910156 -13.375 6.421875 -13.238281 6.078125 -12.96875 C 5.742188 -12.707031 5.578125 -12.351562 5.578125 -11.90625 C 5.578125 -11.675781 5.65625 -11.460938 5.8125 -11.265625 C 5.976562 -11.078125 6.253906 -10.867188 6.640625 -10.640625 C 7.023438 -10.421875 7.363281 -10.242188 7.65625 -10.109375 C 7.945312 -9.984375 8.398438 -9.785156 9.015625 -9.515625 C 10.085938 -9.066406 11 -8.453125 11.75 -7.671875 C 12.5 -6.890625 12.875 -6.003906 12.875 -5.015625 C 12.875 -4.066406 12.703125 -3.238281 12.359375 -2.53125 C 12.023438 -1.832031 11.5625 -1.28125 10.96875 -0.875 C 10.375 -0.476562 9.71875 -0.1875 9 0 C 8.28125 0.195312 7.5 0.296875 6.65625 0.296875 C 5.9375 0.296875 5.226562 0.222656 4.53125 0.078125 C 3.84375 -0.0664062 3.265625 -0.25 2.796875 -0.46875 C 2.328125 -0.6875 1.90625 -0.898438 1.53125 -1.109375 C 1.164062 -1.328125 0.894531 -1.507812 0.71875 -1.65625 L 0.453125 -1.875 L 2.34375 -5.046875 C 2.5 -4.910156 2.71875 -4.738281 3 -4.53125 C 3.28125 -4.320312 3.773438 -4.046875 4.484375 -3.703125 C 5.203125 -3.359375 5.832031 -3.1875 6.375 -3.1875 C 7.96875 -3.1875 8.765625 -3.722656 8.765625 -4.796875 C 8.765625 -5.023438 8.707031 -5.234375 8.59375 -5.421875 C 8.476562 -5.617188 8.273438 -5.8125 7.984375 -6 C 7.703125 -6.195312 7.453125 -6.351562 7.234375 -6.46875 C 7.015625 -6.582031 6.65625 -6.753906 6.15625 -6.984375 C 5.65625 -7.222656 5.285156 -7.398438 5.046875 -7.515625 C 4.046875 -8.015625 3.269531 -8.632812 2.71875 -9.375 C 2.175781 -10.113281 1.90625 -10.910156 1.90625 -11.765625 C 1.90625 -13.242188 2.453125 -14.453125 3.546875 -15.390625 C 4.640625 -16.328125 5.882812 -16.796875 7.28125 -16.796875 Z M 7.28125 -16.796875 "/></g></g></g><g fill="#053262" fill-opacity="1"><g transform="translate(168.277811, 203.999987)"><g><path d="M 0.15625 -13.203125 L 0.15625 -16.5 L 11.765625 -16.5 L 11.765625 -13.203125 L 7.84375 -13.203125 L 7.84375 0 L 4.078125 0 L 4.078125 -13.203125 Z M 0.15625 -13.203125 "/></g></g></g><g fill="#053262" fill-opacity="1"><g transform="translate(181.133111, 203.999987)"><g><path d="M 0.453125 -8.265625 C 0.453125 -10.648438 1.265625 -12.664062 2.890625 -14.3125 C 4.523438 -15.96875 6.488281 -16.796875 8.78125 -16.796875 C 11.082031 -16.796875 13.039062 -15.972656 14.65625 -14.328125 C 16.269531 -12.679688 17.078125 -10.660156 17.078125 -8.265625 C 17.078125 -5.847656 16.28125 -3.816406 14.6875 -2.171875 C 13.101562 -0.523438 11.132812 0.296875 8.78125 0.296875 C 6.363281 0.296875 4.367188 -0.515625 2.796875 -2.140625 C 1.234375 -3.773438 0.453125 -5.816406 0.453125 -8.265625 Z M 4.515625 -8.265625 C 4.515625 -7.390625 4.644531 -6.59375 4.90625 -5.875 C 5.175781 -5.164062 5.644531 -4.566406 6.3125 -4.078125 C 6.976562 -3.585938 7.800781 -3.34375 8.78125 -3.34375 C 10.175781 -3.34375 11.226562 -3.820312 11.9375 -4.78125 C 12.65625 -5.738281 13.015625 -6.898438 13.015625 -8.265625 C 13.015625 -9.609375 12.648438 -10.765625 11.921875 -11.734375 C 11.203125 -12.703125 10.15625 -13.1875 8.78125 -13.1875 C 7.414062 -13.1875 6.363281 -12.703125 5.625 -11.734375 C 4.882812 -10.765625 4.515625 -9.609375 4.515625 -8.265625 Z M 4.515625 -8.265625 "/></g></g></g><g fill="#053262" fill-opacity="1"><g transform="translate(199.606188, 203.999987)"><g><path d="M 1.203125 -16.5 L 7.09375 -16.5 C 8.6875 -16.5 9.984375 -16.070312 10.984375 -15.21875 C 11.984375 -14.375 12.484375 -13.164062 12.484375 -11.59375 C 12.484375 -10.382812 12.175781 -9.367188 11.5625 -8.546875 C 10.957031 -7.722656 10.132812 -7.144531 9.09375 -6.8125 L 14.78125 0 L 10 0 L 4.953125 -6.515625 L 4.953125 0 L 1.203125 0 Z M 4.953125 -9.1875 L 5.40625 -9.1875 C 5.75 -9.1875 6.039062 -9.191406 6.28125 -9.203125 C 6.519531 -9.210938 6.789062 -9.253906 7.09375 -9.328125 C 7.40625 -9.410156 7.65625 -9.523438 7.84375 -9.671875 C 8.03125 -9.828125 8.1875 -10.039062 8.3125 -10.3125 C 8.445312 -10.59375 8.515625 -10.929688 8.515625 -11.328125 C 8.515625 -11.734375 8.445312 -12.078125 8.3125 -12.359375 C 8.1875 -12.640625 8.03125 -12.851562 7.84375 -13 C 7.65625 -13.144531 7.40625 -13.253906 7.09375 -13.328125 C 6.789062 -13.410156 6.519531 -13.457031 6.28125 -13.46875 C 6.039062 -13.488281 5.75 -13.5 5.40625 -13.5 L 4.953125 -13.5 Z M 4.953125 -9.1875 "/></g></g></g><g fill="#053262" fill-opacity="1"><g transform="translate(214.860535, 203.999987)"><g><path d="M 10.640625 -16.5 L 10.640625 -13.203125 L 4.953125 -13.203125 L 4.953125 -9.921875 L 10.40625 -9.921875 L 10.40625 -6.625 L 4.953125 -6.625 L 4.953125 -3.296875 L 10.640625 -3.296875 L 10.640625 0 L 1.203125 0 L 1.203125 -16.5 Z M 10.640625 -16.5 "/></g></g></g><path stroke-linecap="round" transform="matrix(0.75, 0, 0, 0.75, 153.903114, 211.674025)" fill="none" stroke-linejoin="miter" d="M 0.498973 0.502342 L 159.498983 0.502342 " stroke="#053262" stroke-width="1" stroke-opacity="1" stroke-miterlimit="4"/><g fill="#053262" fill-opacity="1"><g transform="translate(153.903114, 223.855982)"><g><path d="M 0.640625 -0.15625 L 0.640625 -5.78125 C 0.640625 -5.882812 0.691406 -5.9375 0.796875 -5.9375 L 4.71875 -5.9375 C 4.820312 -5.9375 4.875 -5.882812 4.875 -5.78125 L 4.875 -5 C 4.875 -4.894531 4.820312 -4.84375 4.71875 -4.84375 L 1.8125 -4.84375 L 1.8125 -3.625 L 4.03125 -3.625 C 4.144531 -3.625 4.203125 -3.570312 4.203125 -3.46875 L 4.203125 -2.71875 C 4.203125 -2.601562 4.144531 -2.546875 4.03125 -2.546875 L 1.8125 -2.546875 L 1.8125 -1.09375 L 4.78125 -1.09375 C 4.894531 -1.09375 4.953125 -1.035156 4.953125 -0.921875 L 4.953125 -0.15625 C 4.953125 -0.0507812 4.894531 0 4.78125 0 L 0.796875 0 C 0.691406 0 0.640625 -0.0507812 0.640625 -0.15625 Z M 0.640625 -0.15625 "/></g></g></g><g fill="#053262" fill-opacity="1"><g transform="translate(162.959161, 223.855982)"><g><path d="M 0.125 -0.171875 L 2.375 -5.78125 C 2.425781 -5.882812 2.492188 -5.9375 2.578125 -5.9375 L 3.25 -5.9375 C 3.34375 -5.9375 3.410156 -5.882812 3.453125 -5.78125 L 5.703125 -0.171875 C 5.734375 -0.117188 5.734375 -0.078125 5.703125 -0.046875 C 5.679688 -0.015625 5.644531 0 5.59375 0 L 4.71875 0 C 4.625 0 4.554688 -0.046875 4.515625 -0.140625 L 4.140625 -1.109375 L 1.6875 -1.109375 L 1.296875 -0.140625 C 1.265625 -0.046875 1.203125 0 1.109375 0 L 0.21875 0 C 0.101562 0 0.0703125 -0.0546875 0.125 -0.171875 Z M 2.90625 -4.40625 L 2.0625 -2.140625 L 3.75 -2.140625 Z M 2.90625 -4.40625 "/></g></g></g><g fill="#053262" fill-opacity="1"><g transform="translate(172.607208, 223.855982)"><g><path d="M 0.515625 -0.90625 C 0.472656 -0.945312 0.441406 -0.992188 0.421875 -1.046875 C 0.410156 -1.097656 0.429688 -1.148438 0.484375 -1.203125 L 1.015625 -1.734375 C 1.054688 -1.765625 1.09375 -1.78125 1.125 -1.78125 C 1.144531 -1.78125 1.171875 -1.769531 1.203125 -1.75 C 1.234375 -1.738281 1.265625 -1.722656 1.296875 -1.703125 C 1.460938 -1.535156 1.65625 -1.378906 1.875 -1.234375 C 2.101562 -1.085938 2.375 -1.015625 2.6875 -1.015625 C 3 -1.015625 3.242188 -1.09375 3.421875 -1.25 C 3.597656 -1.40625 3.6875 -1.582031 3.6875 -1.78125 C 3.6875 -1.957031 3.617188 -2.097656 3.484375 -2.203125 C 3.359375 -2.304688 3.207031 -2.382812 3.03125 -2.4375 C 2.863281 -2.5 2.707031 -2.546875 2.5625 -2.578125 C 1.914062 -2.773438 1.421875 -3.015625 1.078125 -3.296875 C 0.742188 -3.578125 0.578125 -3.941406 0.578125 -4.390625 C 0.578125 -4.722656 0.664062 -5.007812 0.84375 -5.25 C 1.03125 -5.5 1.285156 -5.691406 1.609375 -5.828125 C 1.941406 -5.972656 2.320312 -6.046875 2.75 -6.046875 C 3.09375 -6.046875 3.425781 -5.960938 3.75 -5.796875 C 4.082031 -5.628906 4.363281 -5.425781 4.59375 -5.1875 C 4.695312 -5.09375 4.695312 -4.988281 4.59375 -4.875 L 4.15625 -4.40625 C 4.113281 -4.375 4.078125 -4.359375 4.046875 -4.359375 C 4.003906 -4.359375 3.96875 -4.367188 3.9375 -4.390625 C 3.90625 -4.410156 3.875 -4.429688 3.84375 -4.453125 C 3.757812 -4.523438 3.660156 -4.601562 3.546875 -4.6875 C 3.429688 -4.78125 3.300781 -4.859375 3.15625 -4.921875 C 3.007812 -4.984375 2.859375 -5.015625 2.703125 -5.015625 C 2.566406 -5.015625 2.425781 -4.992188 2.28125 -4.953125 C 2.144531 -4.921875 2.023438 -4.859375 1.921875 -4.765625 C 1.828125 -4.679688 1.78125 -4.550781 1.78125 -4.375 C 1.78125 -4.164062 1.890625 -4.007812 2.109375 -3.90625 C 2.328125 -3.800781 2.601562 -3.703125 2.9375 -3.609375 C 3.300781 -3.503906 3.632812 -3.378906 3.9375 -3.234375 C 4.238281 -3.085938 4.476562 -2.894531 4.65625 -2.65625 C 4.832031 -2.425781 4.921875 -2.125 4.921875 -1.75 C 4.921875 -1.382812 4.816406 -1.0625 4.609375 -0.78125 C 4.398438 -0.507812 4.125 -0.296875 3.78125 -0.140625 C 3.445312 0.00390625 3.085938 0.078125 2.703125 0.078125 C 2.296875 0.078125 1.894531 -0.0078125 1.5 -0.1875 C 1.113281 -0.375 0.785156 -0.613281 0.515625 -0.90625 Z M 0.515625 -0.90625 "/></g></g></g><g fill="#053262" fill-opacity="1"><g transform="translate(181.655248, 223.855982)"><g><path d="M 2.265625 -0.171875 L 2.265625 -2.5 L 0.359375 -5.765625 C 0.328125 -5.816406 0.320312 -5.859375 0.34375 -5.890625 C 0.375 -5.921875 0.414062 -5.9375 0.46875 -5.9375 L 1.453125 -5.9375 C 1.523438 -5.9375 1.585938 -5.890625 1.640625 -5.796875 L 2.859375 -3.46875 L 4.0625 -5.796875 C 4.113281 -5.890625 4.175781 -5.9375 4.25 -5.9375 L 5.25 -5.9375 C 5.300781 -5.9375 5.335938 -5.921875 5.359375 -5.890625 C 5.378906 -5.859375 5.378906 -5.816406 5.359375 -5.765625 L 3.4375 -2.5 L 3.4375 -0.171875 C 3.4375 -0.0546875 3.382812 0 3.28125 0 L 2.421875 0 C 2.316406 0 2.265625 -0.0546875 2.265625 -0.171875 Z M 2.265625 -0.171875 "/></g></g></g><g fill="#053262" fill-opacity="1"><g transform="translate(190.847292, 223.855982)"><g/></g></g><g fill="#053262" fill-opacity="1"><g transform="translate(197.271318, 223.855982)"><g><path d="M 0.515625 -0.90625 C 0.472656 -0.945312 0.441406 -0.992188 0.421875 -1.046875 C 0.410156 -1.097656 0.429688 -1.148438 0.484375 -1.203125 L 1.015625 -1.734375 C 1.054688 -1.765625 1.09375 -1.78125 1.125 -1.78125 C 1.144531 -1.78125 1.171875 -1.769531 1.203125 -1.75 C 1.234375 -1.738281 1.265625 -1.722656 1.296875 -1.703125 C 1.460938 -1.535156 1.65625 -1.378906 1.875 -1.234375 C 2.101562 -1.085938 2.375 -1.015625 2.6875 -1.015625 C 3 -1.015625 3.242188 -1.09375 3.421875 -1.25 C 3.597656 -1.40625 3.6875 -1.582031 3.6875 -1.78125 C 3.6875 -1.957031 3.617188 -2.097656 3.484375 -2.203125 C 3.359375 -2.304688 3.207031 -2.382812 3.03125 -2.4375 C 2.863281 -2.5 2.707031 -2.546875 2.5625 -2.578125 C 1.914062 -2.773438 1.421875 -3.015625 1.078125 -3.296875 C 0.742188 -3.578125 0.578125 -3.941406 0.578125 -4.390625 C 0.578125 -4.722656 0.664062 -5.007812 0.84375 -5.25 C 1.03125 -5.5 1.285156 -5.691406 1.609375 -5.828125 C 1.941406 -5.972656 2.320312 -6.046875 2.75 -6.046875 C 3.09375 -6.046875 3.425781 -5.960938 3.75 -5.796875 C 4.082031 -5.628906 4.363281 -5.425781 4.59375 -5.1875 C 4.695312 -5.09375 4.695312 -4.988281 4.59375 -4.875 L 4.15625 -4.40625 C 4.113281 -4.375 4.078125 -4.359375 4.046875 -4.359375 C 4.003906 -4.359375 3.96875 -4.367188 3.9375 -4.390625 C 3.90625 -4.410156 3.875 -4.429688 3.84375 -4.453125 C 3.757812 -4.523438 3.660156 -4.601562 3.546875 -4.6875 C 3.429688 -4.78125 3.300781 -4.859375 3.15625 -4.921875 C 3.007812 -4.984375 2.859375 -5.015625 2.703125 -5.015625 C 2.566406 -5.015625 2.425781 -4.992188 2.28125 -4.953125 C 2.144531 -4.921875 2.023438 -4.859375 1.921875 -4.765625 C 1.828125 -4.679688 1.78125 -4.550781 1.78125 -4.375 C 1.78125 -4.164062 1.890625 -4.007812 2.109375 -3.90625 C 2.328125 -3.800781 2.601562 -3.703125 2.9375 -3.609375 C 3.300781 -3.503906 3.632812 -3.378906 3.9375 -3.234375 C 4.238281 -3.085938 4.476562 -2.894531 4.65625 -2.65625 C 4.832031 -2.425781 4.921875 -2.125 4.921875 -1.75 C 4.921875 -1.382812 4.816406 -1.0625 4.609375 -0.78125 C 4.398438 -0.507812 4.125 -0.296875 3.78125 -0.140625 C 3.445312 0.00390625 3.085938 0.078125 2.703125 0.078125 C 2.296875 0.078125 1.894531 -0.0078125 1.5 -0.1875 C 1.113281 -0.375 0.785156 -0.613281 0.515625 -0.90625 Z M 0.515625 -0.90625 "/></g></g></g><g fill="#053262" fill-opacity="1"><g transform="translate(206.319357, 223.855982)"><g><path d="M 6.453125 -2.96875 C 6.453125 -2.550781 6.367188 -2.15625 6.203125 -1.78125 C 6.046875 -1.414062 5.828125 -1.09375 5.546875 -0.8125 C 5.273438 -0.53125 4.953125 -0.3125 4.578125 -0.15625 C 4.210938 0 3.816406 0.078125 3.390625 0.078125 C 2.972656 0.078125 2.578125 0 2.203125 -0.15625 C 1.835938 -0.3125 1.515625 -0.53125 1.234375 -0.8125 C 0.960938 -1.09375 0.75 -1.414062 0.59375 -1.78125 C 0.4375 -2.15625 0.359375 -2.550781 0.359375 -2.96875 C 0.359375 -3.394531 0.4375 -3.789062 0.59375 -4.15625 C 0.75 -4.53125 0.960938 -4.851562 1.234375 -5.125 C 1.515625 -5.40625 1.835938 -5.625 2.203125 -5.78125 C 2.578125 -5.945312 2.972656 -6.03125 3.390625 -6.03125 C 3.816406 -6.03125 4.210938 -5.945312 4.578125 -5.78125 C 4.953125 -5.625 5.273438 -5.40625 5.546875 -5.125 C 5.828125 -4.851562 6.046875 -4.53125 6.203125 -4.15625 C 6.367188 -3.789062 6.453125 -3.394531 6.453125 -2.96875 Z M 5.28125 -2.96875 C 5.28125 -3.332031 5.195312 -3.660156 5.03125 -3.953125 C 4.863281 -4.242188 4.640625 -4.472656 4.359375 -4.640625 C 4.078125 -4.816406 3.753906 -4.90625 3.390625 -4.90625 C 3.035156 -4.90625 2.71875 -4.816406 2.4375 -4.640625 C 2.15625 -4.472656 1.929688 -4.242188 1.765625 -3.953125 C 1.597656 -3.660156 1.515625 -3.332031 1.515625 -2.96875 C 1.515625 -2.613281 1.597656 -2.289062 1.765625 -2 C 1.929688 -1.707031 2.15625 -1.472656 2.4375 -1.296875 C 2.71875 -1.128906 3.035156 -1.046875 3.390625 -1.046875 C 3.753906 -1.046875 4.078125 -1.128906 4.359375 -1.296875 C 4.640625 -1.472656 4.863281 -1.707031 5.03125 -2 C 5.195312 -2.289062 5.28125 -2.613281 5.28125 -2.96875 Z M 5.28125 -2.96875 "/></g></g></g><g fill="#053262" fill-opacity="1"><g transform="translate(217.063417, 223.855982)"><g><path d="M 0.640625 -0.171875 L 0.640625 -5.765625 C 0.640625 -5.816406 0.65625 -5.859375 0.6875 -5.890625 C 0.726562 -5.921875 0.773438 -5.9375 0.828125 -5.9375 L 1.640625 -5.9375 C 1.753906 -5.9375 1.816406 -5.878906 1.828125 -5.765625 L 1.828125 -1.09375 L 4.15625 -1.09375 C 4.207031 -1.09375 4.25 -1.070312 4.28125 -1.03125 C 4.320312 -1 4.34375 -0.957031 4.34375 -0.90625 L 4.34375 -0.171875 C 4.34375 -0.0664062 4.28125 -0.0078125 4.15625 0 L 0.828125 0 C 0.703125 0 0.640625 -0.0546875 0.640625 -0.171875 Z M 0.640625 -0.171875 "/></g></g></g><g fill="#053262" fill-opacity="1"><g transform="translate(225.575454, 223.855982)"><g><path d="M 1.734375 -5.765625 L 1.734375 -2.34375 C 1.734375 -2.09375 1.785156 -1.863281 1.890625 -1.65625 C 2.003906 -1.457031 2.15625 -1.296875 2.34375 -1.171875 C 2.53125 -1.046875 2.753906 -0.984375 3.015625 -0.984375 C 3.265625 -0.984375 3.484375 -1.046875 3.671875 -1.171875 C 3.859375 -1.296875 4.003906 -1.457031 4.109375 -1.65625 C 4.210938 -1.863281 4.265625 -2.09375 4.265625 -2.34375 L 4.265625 -5.765625 C 4.265625 -5.804688 4.28125 -5.84375 4.3125 -5.875 C 4.351562 -5.914062 4.398438 -5.9375 4.453125 -5.9375 L 5.25 -5.9375 C 5.289062 -5.9375 5.332031 -5.921875 5.375 -5.890625 C 5.425781 -5.859375 5.453125 -5.816406 5.453125 -5.765625 L 5.453125 -2.34375 C 5.453125 -2.007812 5.382812 -1.691406 5.25 -1.390625 C 5.125 -1.097656 4.953125 -0.835938 4.734375 -0.609375 C 4.515625 -0.390625 4.253906 -0.21875 3.953125 -0.09375 C 3.660156 0.03125 3.347656 0.09375 3.015625 0.09375 C 2.671875 0.09375 2.347656 0.03125 2.046875 -0.09375 C 1.753906 -0.21875 1.492188 -0.390625 1.265625 -0.609375 C 1.046875 -0.835938 0.875 -1.097656 0.75 -1.390625 C 0.625 -1.691406 0.5625 -2.007812 0.5625 -2.34375 L 0.5625 -5.765625 C 0.5625 -5.804688 0.578125 -5.84375 0.609375 -5.875 C 0.640625 -5.914062 0.679688 -5.9375 0.734375 -5.9375 L 1.546875 -5.9375 C 1.585938 -5.9375 1.628906 -5.914062 1.671875 -5.875 C 1.710938 -5.84375 1.734375 -5.804688 1.734375 -5.765625 Z M 1.734375 -5.765625 "/></g></g></g><g fill="#053262" fill-opacity="1"><g transform="translate(235.511505, 223.855982)"><g><path d="M 0.171875 -5.03125 L 0.171875 -5.78125 C 0.171875 -5.882812 0.21875 -5.9375 0.3125 -5.9375 L 4.515625 -5.9375 C 4.628906 -5.9375 4.6875 -5.882812 4.6875 -5.78125 L 4.6875 -5.03125 C 4.6875 -4.914062 4.628906 -4.859375 4.515625 -4.859375 L 2.984375 -4.859375 L 2.984375 -0.15625 C 2.984375 -0.0507812 2.929688 0 2.828125 0 L 1.96875 0 C 1.863281 0 1.8125 -0.0507812 1.8125 -0.15625 L 1.8125 -4.859375 L 0.3125 -4.859375 C 0.21875 -4.859375 0.171875 -4.914062 0.171875 -5.03125 Z M 0.171875 -5.03125 "/></g></g></g><g fill="#053262" fill-opacity="1"><g transform="translate(244.319548, 223.855982)"><g><path d="M 0.640625 -0.15625 L 0.640625 -5.765625 C 0.640625 -5.878906 0.695312 -5.9375 0.8125 -5.9375 L 1.671875 -5.9375 C 1.773438 -5.9375 1.828125 -5.878906 1.828125 -5.765625 L 1.828125 -0.15625 C 1.828125 -0.0507812 1.773438 0 1.671875 0 L 0.8125 0 C 0.695312 0 0.640625 -0.0507812 0.640625 -0.15625 Z M 0.640625 -0.15625 "/></g></g></g><g fill="#053262" fill-opacity="1"><g transform="translate(250.711573, 223.855982)"><g><path d="M 6.453125 -2.96875 C 6.453125 -2.550781 6.367188 -2.15625 6.203125 -1.78125 C 6.046875 -1.414062 5.828125 -1.09375 5.546875 -0.8125 C 5.273438 -0.53125 4.953125 -0.3125 4.578125 -0.15625 C 4.210938 0 3.816406 0.078125 3.390625 0.078125 C 2.972656 0.078125 2.578125 0 2.203125 -0.15625 C 1.835938 -0.3125 1.515625 -0.53125 1.234375 -0.8125 C 0.960938 -1.09375 0.75 -1.414062 0.59375 -1.78125 C 0.4375 -2.15625 0.359375 -2.550781 0.359375 -2.96875 C 0.359375 -3.394531 0.4375 -3.789062 0.59375 -4.15625 C 0.75 -4.53125 0.960938 -4.851562 1.234375 -5.125 C 1.515625 -5.40625 1.835938 -5.625 2.203125 -5.78125 C 2.578125 -5.945312 2.972656 -6.03125 3.390625 -6.03125 C 3.816406 -6.03125 4.210938 -5.945312 4.578125 -5.78125 C 4.953125 -5.625 5.273438 -5.40625 5.546875 -5.125 C 5.828125 -4.851562 6.046875 -4.53125 6.203125 -4.15625 C 6.367188 -3.789062 6.453125 -3.394531 6.453125 -2.96875 Z M 5.28125 -2.96875 C 5.28125 -3.332031 5.195312 -3.660156 5.03125 -3.953125 C 4.863281 -4.242188 4.640625 -4.472656 4.359375 -4.640625 C 4.078125 -4.816406 3.753906 -4.90625 3.390625 -4.90625 C 3.035156 -4.90625 2.71875 -4.816406 2.4375 -4.640625 C 2.15625 -4.472656 1.929688 -4.242188 1.765625 -3.953125 C 1.597656 -3.660156 1.515625 -3.332031 1.515625 -2.96875 C 1.515625 -2.613281 1.597656 -2.289062 1.765625 -2 C 1.929688 -1.707031 2.15625 -1.472656 2.4375 -1.296875 C 2.71875 -1.128906 3.035156 -1.046875 3.390625 -1.046875 C 3.753906 -1.046875 4.078125 -1.128906 4.359375 -1.296875 C 4.640625 -1.472656 4.863281 -1.707031 5.03125 -2 C 5.195312 -2.289062 5.28125 -2.613281 5.28125 -2.96875 Z M 5.28125 -2.96875 "/></g></g></g><g fill="#053262" fill-opacity="1"><g transform="translate(261.455633, 223.855982)"><g><path d="M 0.640625 -0.171875 L 0.640625 -5.765625 C 0.640625 -5.804688 0.65625 -5.84375 0.6875 -5.875 C 0.71875 -5.914062 0.765625 -5.9375 0.828125 -5.9375 L 1.765625 -5.9375 C 1.804688 -5.9375 1.847656 -5.925781 1.890625 -5.90625 C 1.929688 -5.882812 1.960938 -5.851562 1.984375 -5.8125 L 4.625 -2.03125 L 4.625 -5.8125 C 4.632812 -5.863281 4.65625 -5.894531 4.6875 -5.90625 C 4.726562 -5.925781 4.765625 -5.9375 4.796875 -5.9375 L 5.609375 -5.9375 C 5.648438 -5.9375 5.691406 -5.921875 5.734375 -5.890625 C 5.773438 -5.859375 5.796875 -5.816406 5.796875 -5.765625 L 5.796875 -0.171875 C 5.796875 -0.0546875 5.734375 0 5.609375 0 L 4.8125 0 C 4.75 0 4.703125 -0.0078125 4.671875 -0.03125 C 4.640625 -0.0625 4.609375 -0.09375 4.578125 -0.125 L 1.8125 -4.125 L 1.8125 -0.171875 C 1.8125 -0.0546875 1.75 0 1.625 0 L 0.828125 0 C 0.703125 0 0.640625 -0.0546875 0.640625 -0.171875 Z M 0.640625 -0.171875 "/></g></g></g><g fill="#053262" fill-opacity="1"><g transform="translate(271.719692, 223.855982)"><g><path d="M 0.484375 -0.546875 C 0.484375 -0.722656 0.546875 -0.875 0.671875 -1 C 0.796875 -1.125 0.945312 -1.1875 1.125 -1.1875 C 1.3125 -1.1875 1.460938 -1.125 1.578125 -1 C 1.703125 -0.875 1.765625 -0.722656 1.765625 -0.546875 C 1.765625 -0.367188 1.703125 -0.210938 1.578125 -0.078125 C 1.460938 0.046875 1.3125 0.109375 1.125 0.109375 C 0.945312 0.109375 0.796875 0.046875 0.671875 -0.078125 C 0.546875 -0.210938 0.484375 -0.367188 0.484375 -0.546875 Z M 0.484375 -0.546875 "/></g></g></g></svg>