<svg xmlns="http://www.w3.org/2000/svg" xmlns:xlink="http://www.w3.org/1999/xlink" width="160" zoomAndPan="magnify" viewBox="0 0 120 74.999997" height="100" preserveAspectRatio="xMidYMid meet" version="1.0"><defs><g/><clipPath id="707c172761"><path d="M 0 32.964844 L 119.949219 32.964844 L 119.949219 56.511719 L 0 56.511719 Z M 0 32.964844 " clip-rule="nonzero"/></clipPath><clipPath id="dbbd726723"><path d="M 1.765625 32.964844 L 118.101562 32.964844 C 119.078125 32.964844 119.867188 33.753906 119.867188 34.730469 L 119.867188 54.746094 C 119.867188 55.722656 119.078125 56.511719 118.101562 56.511719 L 1.765625 56.511719 C 0.789062 56.511719 0 55.722656 0 54.746094 L 0 34.730469 C 0 33.753906 0.789062 32.964844 1.765625 32.964844 Z M 1.765625 32.964844 " clip-rule="nonzero"/></clipPath><clipPath id="e97b55db8b"><path d="M 0 12.355469 L 25.5 12.355469 L 25.5 46.855469 L 0 46.855469 Z M 0 12.355469 " clip-rule="nonzero"/></clipPath><clipPath id="2061f100bf"><path d="M 0 12.355469 L 25.5 12.355469 L 25.5 46.855469 L 0 46.855469 Z M 0 12.355469 " clip-rule="nonzero"/></clipPath></defs><g clip-path="url(#707c172761)"><g clip-path="url(#dbbd726723)"><path fill="#ffffff" d="M 0 32.964844 L 119.859375 32.964844 L 119.859375 56.511719 L 0 56.511719 Z M 0 32.964844 " fill-opacity="1" fill-rule="nonzero"/></g></g><g clip-path="url(#e97b55db8b)"><path fill="#ffb929" d="M 25.308594 26.84375 L 24.726562 21.695312 C 24.625 20.792969 23.855469 20.109375 22.945312 20.109375 L 20.050781 20.109375 L 20.050781 18.640625 C 20.050781 15.191406 17.246094 12.390625 13.800781 12.390625 C 10.351562 12.390625 7.550781 15.191406 7.550781 18.640625 L 7.550781 20.109375 L 4.652344 20.109375 C 3.742188 20.109375 2.976562 20.792969 2.871094 21.695312 L 0.253906 44.679688 C 0.125 45.78125 0.988281 46.738281 2.097656 46.738281 L 3.070312 46.738281 C 7.09375 29.472656 19.984375 27.078125 25.308594 26.84375 Z M 19.25 21.984375 C 19.691406 21.984375 20.050781 22.34375 20.050781 22.78125 C 20.050781 23.222656 19.691406 23.582031 19.25 23.582031 C 18.8125 23.582031 18.453125 23.222656 18.453125 22.78125 C 18.453125 22.34375 18.8125 21.984375 19.25 21.984375 Z M 9.144531 18.648438 C 9.144531 16.085938 11.230469 13.992188 13.800781 13.992188 C 16.371094 13.992188 18.453125 16.085938 18.453125 18.648438 L 18.453125 20.117188 L 9.144531 20.117188 Z M 8.347656 21.984375 C 8.785156 21.984375 9.144531 22.34375 9.144531 22.78125 C 9.144531 23.222656 8.785156 23.582031 8.347656 23.582031 C 7.910156 23.582031 7.550781 23.222656 7.550781 22.78125 C 7.550781 22.34375 7.910156 21.984375 8.347656 21.984375 Z M 8.347656 21.984375 " fill-opacity="1" fill-rule="nonzero"/></g><g fill="#111b1e" fill-opacity="1"><g transform="translate(31.885573, 61.775416)"><g><path d="M 1.40625 0.03125 C 1.175781 0.03125 0.96875 -0.015625 0.78125 -0.109375 C 0.601562 -0.203125 0.460938 -0.347656 0.359375 -0.546875 C 0.253906 -0.742188 0.203125 -0.992188 0.203125 -1.296875 C 0.203125 -1.585938 0.253906 -1.832031 0.359375 -2.03125 C 0.460938 -2.226562 0.601562 -2.375 0.78125 -2.46875 C 0.96875 -2.570312 1.175781 -2.625 1.40625 -2.625 C 1.644531 -2.625 1.851562 -2.578125 2.03125 -2.484375 C 2.21875 -2.390625 2.359375 -2.238281 2.453125 -2.03125 C 2.554688 -1.832031 2.609375 -1.585938 2.609375 -1.296875 C 2.609375 -0.992188 2.554688 -0.742188 2.453125 -0.546875 C 2.359375 -0.347656 2.21875 -0.203125 2.03125 -0.109375 C 1.851562 -0.015625 1.644531 0.03125 1.40625 0.03125 Z M 1.40625 -0.40625 C 1.625 -0.40625 1.789062 -0.472656 1.90625 -0.609375 C 2.03125 -0.753906 2.09375 -0.984375 2.09375 -1.296875 C 2.09375 -1.597656 2.03125 -1.820312 1.90625 -1.96875 C 1.789062 -2.113281 1.625 -2.1875 1.40625 -2.1875 C 1.1875 -2.1875 1.019531 -2.113281 0.90625 -1.96875 C 0.789062 -1.820312 0.734375 -1.597656 0.734375 -1.296875 C 0.734375 -0.984375 0.789062 -0.753906 0.90625 -0.609375 C 1.019531 -0.472656 1.1875 -0.40625 1.40625 -0.40625 Z M 1.40625 -0.40625 "/></g></g></g><g fill="#111b1e" fill-opacity="1"><g transform="translate(36.943452, 61.775416)"><g><path d="M 0.828125 0 L 0.34375 0 L 0.34375 -2.59375 L 0.921875 -2.59375 L 1.96875 -0.921875 L 2 -0.921875 L 2 -2.59375 L 2.5 -2.59375 L 2.5 0 L 1.96875 0 L 0.875 -1.78125 L 0.828125 -1.78125 Z M 0.828125 0 "/></g></g></g><g fill="#111b1e" fill-opacity="1"><g transform="translate(42.019042, 61.775416)"><g><path d="M 0.84375 -2.59375 L 0.84375 -0.421875 L 2.015625 -0.421875 L 2.015625 0 L 0.34375 0 L 0.34375 -2.59375 Z M 0.84375 -2.59375 "/></g></g></g><g fill="#111b1e" fill-opacity="1"><g transform="translate(46.352543, 61.775416)"><g><path d="M 0.84375 0 L 0.34375 0 L 0.34375 -2.59375 L 0.84375 -2.59375 Z M 0.84375 0 "/></g></g></g><g fill="#111b1e" fill-opacity="1"><g transform="translate(49.775702, 61.775416)"><g><path d="M 0.828125 0 L 0.34375 0 L 0.34375 -2.59375 L 0.921875 -2.59375 L 1.96875 -0.921875 L 2 -0.921875 L 2 -2.59375 L 2.5 -2.59375 L 2.5 0 L 1.96875 0 L 0.875 -1.78125 L 0.828125 -1.78125 Z M 0.828125 0 "/></g></g></g><g fill="#111b1e" fill-opacity="1"><g transform="translate(54.851291, 61.775416)"><g><path d="M 0.84375 -1.140625 L 0.84375 -0.421875 L 2.078125 -0.421875 L 2.078125 0 L 0.34375 0 L 0.34375 -2.59375 L 2.0625 -2.59375 L 2.0625 -2.15625 L 0.84375 -2.15625 L 0.84375 -1.546875 L 1.90625 -1.546875 L 1.90625 -1.140625 Z M 0.84375 -1.140625 "/></g></g></g><g fill="#111b1e" fill-opacity="1"><g transform="translate(59.314083, 61.775416)"><g/></g></g><g fill="#111b1e" fill-opacity="1"><g transform="translate(62.40605, 61.775416)"><g><path d="M 1.140625 0.03125 C 0.960938 0.03125 0.800781 0.0078125 0.65625 -0.03125 C 0.519531 -0.0703125 0.40625 -0.128906 0.3125 -0.203125 C 0.21875 -0.273438 0.148438 -0.351562 0.109375 -0.4375 L 0.390625 -0.78125 L 0.4375 -0.78125 C 0.507812 -0.664062 0.601562 -0.570312 0.71875 -0.5 C 0.84375 -0.4375 0.984375 -0.40625 1.140625 -0.40625 C 1.285156 -0.40625 1.390625 -0.429688 1.453125 -0.484375 C 1.523438 -0.546875 1.5625 -0.628906 1.5625 -0.734375 C 1.5625 -0.796875 1.550781 -0.847656 1.53125 -0.890625 C 1.507812 -0.929688 1.472656 -0.960938 1.421875 -0.984375 C 1.367188 -1.015625 1.296875 -1.039062 1.203125 -1.0625 L 0.875 -1.140625 C 0.644531 -1.191406 0.472656 -1.28125 0.359375 -1.40625 C 0.242188 -1.53125 0.1875 -1.691406 0.1875 -1.890625 C 0.1875 -2.035156 0.222656 -2.160156 0.296875 -2.265625 C 0.367188 -2.378906 0.472656 -2.46875 0.609375 -2.53125 C 0.753906 -2.59375 0.921875 -2.625 1.109375 -2.625 C 1.304688 -2.625 1.476562 -2.597656 1.625 -2.546875 C 1.769531 -2.492188 1.890625 -2.410156 1.984375 -2.296875 L 1.734375 -1.953125 L 1.6875 -1.953125 C 1.613281 -2.035156 1.53125 -2.09375 1.4375 -2.125 C 1.34375 -2.164062 1.234375 -2.1875 1.109375 -2.1875 C 0.972656 -2.1875 0.867188 -2.160156 0.796875 -2.109375 C 0.722656 -2.066406 0.6875 -2 0.6875 -1.90625 C 0.6875 -1.820312 0.710938 -1.753906 0.765625 -1.703125 C 0.816406 -1.660156 0.90625 -1.625 1.03125 -1.59375 L 1.359375 -1.53125 C 1.617188 -1.476562 1.800781 -1.382812 1.90625 -1.25 C 2.019531 -1.125 2.078125 -0.960938 2.078125 -0.765625 C 2.078125 -0.597656 2.039062 -0.453125 1.96875 -0.328125 C 1.90625 -0.210938 1.800781 -0.125 1.65625 -0.0625 C 1.519531 0 1.347656 0.03125 1.140625 0.03125 Z M 1.140625 0.03125 "/></g></g></g><g fill="#111b1e" fill-opacity="1"><g transform="translate(66.867069, 61.775416)"><g><path d="M 2.078125 -2.59375 L 2.078125 -2.15625 L 1.328125 -2.15625 L 1.328125 0 L 0.8125 0 L 0.8125 -2.15625 L 0.078125 -2.15625 L 0.078125 -2.59375 Z M 2.078125 -2.59375 "/></g></g></g><g fill="#111b1e" fill-opacity="1"><g transform="translate(71.250161, 61.775416)"><g><path d="M 1.40625 0.03125 C 1.175781 0.03125 0.96875 -0.015625 0.78125 -0.109375 C 0.601562 -0.203125 0.460938 -0.347656 0.359375 -0.546875 C 0.253906 -0.742188 0.203125 -0.992188 0.203125 -1.296875 C 0.203125 -1.585938 0.253906 -1.832031 0.359375 -2.03125 C 0.460938 -2.226562 0.601562 -2.375 0.78125 -2.46875 C 0.96875 -2.570312 1.175781 -2.625 1.40625 -2.625 C 1.644531 -2.625 1.851562 -2.578125 2.03125 -2.484375 C 2.21875 -2.390625 2.359375 -2.238281 2.453125 -2.03125 C 2.554688 -1.832031 2.609375 -1.585938 2.609375 -1.296875 C 2.609375 -0.992188 2.554688 -0.742188 2.453125 -0.546875 C 2.359375 -0.347656 2.21875 -0.203125 2.03125 -0.109375 C 1.851562 -0.015625 1.644531 0.03125 1.40625 0.03125 Z M 1.40625 -0.40625 C 1.625 -0.40625 1.789062 -0.472656 1.90625 -0.609375 C 2.03125 -0.753906 2.09375 -0.984375 2.09375 -1.296875 C 2.09375 -1.597656 2.03125 -1.820312 1.90625 -1.96875 C 1.789062 -2.113281 1.625 -2.1875 1.40625 -2.1875 C 1.1875 -2.1875 1.019531 -2.113281 0.90625 -1.96875 C 0.789062 -1.820312 0.734375 -1.597656 0.734375 -1.296875 C 0.734375 -0.984375 0.789062 -0.753906 0.90625 -0.609375 C 1.019531 -0.472656 1.1875 -0.40625 1.40625 -0.40625 Z M 1.40625 -0.40625 "/></g></g></g><g fill="#111b1e" fill-opacity="1"><g transform="translate(76.308039, 61.775416)"><g><path d="M 0.34375 0 L 0.34375 -2.59375 L 1.375 -2.59375 C 1.644531 -2.59375 1.847656 -2.53125 1.984375 -2.40625 C 2.117188 -2.28125 2.1875 -2.109375 2.1875 -1.890625 C 2.1875 -1.734375 2.144531 -1.601562 2.0625 -1.5 C 1.988281 -1.40625 1.867188 -1.332031 1.703125 -1.28125 L 1.703125 -1.234375 C 1.785156 -1.203125 1.851562 -1.148438 1.90625 -1.078125 C 1.957031 -1.015625 2.003906 -0.910156 2.046875 -0.765625 L 2.3125 0 L 1.78125 0 L 1.53125 -0.78125 C 1.5 -0.851562 1.46875 -0.910156 1.4375 -0.953125 C 1.40625 -0.992188 1.363281 -1.023438 1.3125 -1.046875 C 1.269531 -1.066406 1.207031 -1.078125 1.125 -1.078125 L 0.84375 -1.078125 L 0.84375 0 Z M 1.3125 -1.484375 C 1.5625 -1.484375 1.6875 -1.597656 1.6875 -1.828125 C 1.6875 -2.066406 1.5625 -2.1875 1.3125 -2.1875 L 0.84375 -2.1875 L 0.84375 -1.484375 Z M 1.3125 -1.484375 "/></g></g></g><g fill="#111b1e" fill-opacity="1"><g transform="translate(80.965651, 61.775416)"><g><path d="M 0.84375 -1.140625 L 0.84375 -0.421875 L 2.078125 -0.421875 L 2.078125 0 L 0.34375 0 L 0.34375 -2.59375 L 2.0625 -2.59375 L 2.0625 -2.15625 L 0.84375 -2.15625 L 0.84375 -1.546875 L 1.90625 -1.546875 L 1.90625 -1.140625 Z M 0.84375 -1.140625 "/></g></g></g><g clip-path="url(#2061f100bf)"><path fill="#004aad" d="M 25.308594 26.84375 L 24.726562 21.695312 C 24.625 20.792969 23.855469 20.109375 22.945312 20.109375 L 20.050781 20.109375 L 20.050781 18.640625 C 20.050781 15.191406 17.246094 12.390625 13.800781 12.390625 C 10.351562 12.390625 7.550781 15.191406 7.550781 18.640625 L 7.550781 20.109375 L 4.652344 20.109375 C 3.742188 20.109375 2.976562 20.792969 2.871094 21.695312 L 0.253906 44.679688 C 0.125 45.78125 0.988281 46.738281 2.097656 46.738281 L 3.070312 46.738281 C 7.09375 29.472656 19.984375 27.078125 25.308594 26.84375 Z M 19.25 21.984375 C 19.691406 21.984375 20.050781 22.34375 20.050781 22.78125 C 20.050781 23.222656 19.691406 23.582031 19.25 23.582031 C 18.8125 23.582031 18.453125 23.222656 18.453125 22.78125 C 18.453125 22.34375 18.8125 21.984375 19.25 21.984375 Z M 9.144531 18.648438 C 9.144531 16.085938 11.230469 13.992188 13.800781 13.992188 C 16.371094 13.992188 18.453125 16.085938 18.453125 18.648438 L 18.453125 20.117188 L 9.144531 20.117188 Z M 8.347656 21.984375 C 8.785156 21.984375 9.144531 22.34375 9.144531 22.78125 C 9.144531 23.222656 8.785156 23.582031 8.347656 23.582031 C 7.910156 23.582031 7.550781 23.222656 7.550781 22.78125 C 7.550781 22.34375 7.910156 21.984375 8.347656 21.984375 Z M 8.347656 21.984375 " fill-opacity="1" fill-rule="nonzero"/></g><g fill="#004aad" fill-opacity="1"><g transform="translate(5.334087, 53.852225)"><g><path d="M 10.8125 -14.640625 L 10.8125 -13.21875 L 3.9375 -13.21875 L 3.9375 -7.890625 L 10.125 -7.890625 L 10.125 -6.453125 L 3.9375 -6.453125 L 3.9375 0 L 2.21875 0 L 2.21875 -14.640625 Z M 10.8125 -14.640625 "/></g></g></g><g fill="#004aad" fill-opacity="1"><g transform="translate(14.8037, 53.852225)"><g><path d="M 4.546875 0.203125 C 3.460938 0.203125 2.613281 -0.078125 2 -0.640625 C 1.394531 -1.203125 1.09375 -2.015625 1.09375 -3.078125 C 1.09375 -3.722656 1.226562 -4.269531 1.5 -4.71875 C 1.769531 -5.175781 2.1875 -5.546875 2.75 -5.828125 C 3.320312 -6.109375 4.0625 -6.328125 4.96875 -6.484375 C 5.769531 -6.617188 6.378906 -6.769531 6.796875 -6.9375 C 7.210938 -7.101562 7.492188 -7.289062 7.640625 -7.5 C 7.785156 -7.707031 7.859375 -7.96875 7.859375 -8.28125 C 7.859375 -8.78125 7.6875 -9.160156 7.34375 -9.421875 C 7 -9.691406 6.445312 -9.828125 5.6875 -9.828125 C 4.96875 -9.828125 4.351562 -9.6875 3.84375 -9.40625 C 3.332031 -9.132812 2.863281 -8.722656 2.4375 -8.171875 L 2.25 -8.171875 L 1.4375 -9.3125 C 1.90625 -9.90625 2.5 -10.375 3.21875 -10.71875 C 3.9375 -11.070312 4.757812 -11.25 5.6875 -11.25 C 6.988281 -11.25 7.945312 -10.960938 8.5625 -10.390625 C 9.175781 -9.828125 9.484375 -9.039062 9.484375 -8.03125 L 9.484375 -2.171875 C 9.484375 -1.554688 9.742188 -1.25 10.265625 -1.25 C 10.441406 -1.25 10.609375 -1.28125 10.765625 -1.34375 L 10.90625 -1.296875 L 11.09375 -0.171875 C 10.976562 -0.0859375 10.820312 -0.0234375 10.625 0.015625 C 10.425781 0.0546875 10.222656 0.078125 10.015625 0.078125 C 9.410156 0.078125 8.953125 -0.0507812 8.640625 -0.3125 C 8.328125 -0.582031 8.128906 -0.976562 8.046875 -1.5 L 7.84375 -1.515625 C 7.53125 -0.941406 7.101562 -0.507812 6.5625 -0.21875 C 6.03125 0.0625 5.359375 0.203125 4.546875 0.203125 Z M 4.921875 -1.09375 C 5.523438 -1.09375 6.050781 -1.234375 6.5 -1.515625 C 6.957031 -1.796875 7.304688 -2.191406 7.546875 -2.703125 C 7.785156 -3.222656 7.90625 -3.820312 7.90625 -4.5 L 7.90625 -5.890625 L 7.71875 -5.9375 C 7.46875 -5.757812 7.164062 -5.613281 6.8125 -5.5 C 6.457031 -5.382812 5.960938 -5.28125 5.328125 -5.1875 C 4.691406 -5.101562 4.1875 -4.96875 3.8125 -4.78125 C 3.4375 -4.601562 3.164062 -4.375 3 -4.09375 C 2.84375 -3.820312 2.765625 -3.484375 2.765625 -3.078125 C 2.765625 -2.429688 2.953125 -1.9375 3.328125 -1.59375 C 3.710938 -1.257812 4.242188 -1.09375 4.921875 -1.09375 Z M 4.921875 -1.09375 "/></g></g></g><g fill="#004aad" fill-opacity="1"><g transform="translate(24.093111, 53.852225)"><g><path d="M 5.03125 0.203125 C 4.34375 0.203125 3.703125 0.113281 3.109375 -0.0625 C 2.515625 -0.25 2.015625 -0.5 1.609375 -0.8125 C 1.203125 -1.132812 0.914062 -1.5 0.75 -1.90625 L 1.71875 -2.90625 L 1.921875 -2.90625 C 2.285156 -2.351562 2.71875 -1.9375 3.21875 -1.65625 C 3.726562 -1.382812 4.332031 -1.25 5.03125 -1.25 C 5.84375 -1.25 6.460938 -1.40625 6.890625 -1.71875 C 7.316406 -2.039062 7.53125 -2.484375 7.53125 -3.046875 C 7.53125 -3.484375 7.398438 -3.84375 7.140625 -4.125 C 6.878906 -4.40625 6.460938 -4.617188 5.890625 -4.765625 L 4.03125 -5.21875 C 3.039062 -5.457031 2.316406 -5.835938 1.859375 -6.359375 C 1.398438 -6.878906 1.171875 -7.523438 1.171875 -8.296875 C 1.171875 -8.898438 1.320312 -9.421875 1.625 -9.859375 C 1.9375 -10.304688 2.378906 -10.648438 2.953125 -10.890625 C 3.535156 -11.128906 4.222656 -11.25 5.015625 -11.25 C 6.023438 -11.25 6.820312 -11.109375 7.40625 -10.828125 C 7.988281 -10.546875 8.445312 -10.148438 8.78125 -9.640625 L 7.859375 -8.734375 L 7.65625 -8.734375 C 7.300781 -9.140625 6.914062 -9.429688 6.5 -9.609375 C 6.082031 -9.796875 5.585938 -9.890625 5.015625 -9.890625 C 4.285156 -9.890625 3.726562 -9.757812 3.34375 -9.5 C 2.957031 -9.238281 2.765625 -8.863281 2.765625 -8.375 C 2.765625 -7.925781 2.898438 -7.5625 3.171875 -7.28125 C 3.441406 -7.007812 3.921875 -6.789062 4.609375 -6.625 L 6.4375 -6.1875 C 7.394531 -5.957031 8.085938 -5.578125 8.515625 -5.046875 C 8.941406 -4.523438 9.15625 -3.867188 9.15625 -3.078125 C 9.15625 -2.429688 9 -1.859375 8.6875 -1.359375 C 8.382812 -0.867188 7.921875 -0.484375 7.296875 -0.203125 C 6.679688 0.0664062 5.925781 0.203125 5.03125 0.203125 Z M 5.03125 0.203125 "/></g></g></g><g fill="#004aad" fill-opacity="1"><g transform="translate(32.171158, 53.852225)"><g><path d="M 1.921875 0 L 1.921875 -15.46875 L 3.546875 -15.46875 L 3.546875 -9.46875 L 3.765625 -9.421875 C 4.546875 -10.640625 5.679688 -11.25 7.171875 -11.25 C 8.503906 -11.25 9.46875 -10.910156 10.0625 -10.234375 C 10.65625 -9.554688 10.953125 -8.515625 10.953125 -7.109375 L 10.953125 0 L 9.328125 0 L 9.328125 -7.0625 C 9.328125 -7.726562 9.238281 -8.265625 9.0625 -8.671875 C 8.894531 -9.078125 8.632812 -9.367188 8.28125 -9.546875 C 7.925781 -9.734375 7.457031 -9.828125 6.875 -9.828125 C 5.875 -9.828125 5.066406 -9.503906 4.453125 -8.859375 C 3.847656 -8.210938 3.546875 -7.148438 3.546875 -5.671875 L 3.546875 0 Z M 1.921875 0 "/></g></g></g><g fill="#004aad" fill-opacity="1"><g transform="translate(42.752022, 53.852225)"><g><path d="M 2.75 -13.171875 C 2.394531 -13.171875 2.109375 -13.28125 1.890625 -13.5 C 1.679688 -13.71875 1.578125 -13.992188 1.578125 -14.328125 C 1.578125 -14.660156 1.679688 -14.929688 1.890625 -15.140625 C 2.109375 -15.359375 2.394531 -15.46875 2.75 -15.46875 C 3.09375 -15.46875 3.367188 -15.359375 3.578125 -15.140625 C 3.796875 -14.929688 3.90625 -14.660156 3.90625 -14.328125 C 3.90625 -13.992188 3.796875 -13.71875 3.578125 -13.5 C 3.367188 -13.28125 3.09375 -13.171875 2.75 -13.171875 Z M 1.921875 0 L 1.921875 -11.046875 L 3.546875 -11.046875 L 3.546875 0 Z M 1.921875 0 "/></g></g></g><g fill="#004aad" fill-opacity="1"><g transform="translate(46.094742, 53.852225)"><g><path d="M 6.34375 0.203125 C 5.300781 0.203125 4.394531 -0.015625 3.625 -0.453125 C 2.851562 -0.890625 2.257812 -1.535156 1.84375 -2.390625 C 1.425781 -3.253906 1.21875 -4.296875 1.21875 -5.515625 C 1.21875 -6.734375 1.425781 -7.773438 1.84375 -8.640625 C 2.257812 -9.503906 2.851562 -10.15625 3.625 -10.59375 C 4.394531 -11.03125 5.300781 -11.25 6.34375 -11.25 C 7.375 -11.25 8.273438 -11.03125 9.046875 -10.59375 C 9.816406 -10.15625 10.410156 -9.503906 10.828125 -8.640625 C 11.253906 -7.773438 11.46875 -6.734375 11.46875 -5.515625 C 11.46875 -4.296875 11.253906 -3.253906 10.828125 -2.390625 C 10.410156 -1.535156 9.816406 -0.890625 9.046875 -0.453125 C 8.273438 -0.015625 7.375 0.203125 6.34375 0.203125 Z M 6.34375 -1.25 C 7.4375 -1.25 8.273438 -1.59375 8.859375 -2.28125 C 9.441406 -2.976562 9.734375 -4.054688 9.734375 -5.515625 C 9.734375 -6.972656 9.441406 -8.050781 8.859375 -8.75 C 8.273438 -9.445312 7.4375 -9.796875 6.34375 -9.796875 C 5.238281 -9.796875 4.390625 -9.445312 3.796875 -8.75 C 3.210938 -8.050781 2.921875 -6.972656 2.921875 -5.515625 C 2.921875 -4.054688 3.210938 -2.976562 3.796875 -2.28125 C 4.390625 -1.59375 5.238281 -1.25 6.34375 -1.25 Z M 6.34375 -1.25 "/></g></g></g><g fill="#004aad" fill-opacity="1"><g transform="translate(56.635561, 53.852225)"><g><path d="M 1.921875 0 L 1.921875 -11.046875 L 3.46875 -11.046875 L 3.46875 -9.3125 L 3.6875 -9.265625 C 4.050781 -9.910156 4.519531 -10.398438 5.09375 -10.734375 C 5.664062 -11.078125 6.359375 -11.25 7.171875 -11.25 C 8.503906 -11.25 9.46875 -10.910156 10.0625 -10.234375 C 10.65625 -9.554688 10.953125 -8.515625 10.953125 -7.109375 L 10.953125 0 L 9.328125 0 L 9.328125 -7.0625 C 9.328125 -7.726562 9.238281 -8.265625 9.0625 -8.671875 C 8.894531 -9.078125 8.632812 -9.367188 8.28125 -9.546875 C 7.925781 -9.734375 7.457031 -9.828125 6.875 -9.828125 C 5.882812 -9.828125 5.082031 -9.5 4.46875 -8.84375 C 3.851562 -8.1875 3.546875 -7.128906 3.546875 -5.671875 L 3.546875 0 Z M 1.921875 0 "/></g></g></g><g fill="#004aad" fill-opacity="1"><g transform="translate(67.216422, 53.852225)"><g/></g></g><g fill="#004aad" fill-opacity="1"><g transform="translate(70.108638, 53.852225)"><g><path d="M 6.390625 0.203125 C 5.472656 0.203125 4.648438 0.078125 3.921875 -0.171875 C 3.191406 -0.421875 2.582031 -0.75 2.09375 -1.15625 C 1.601562 -1.5625 1.238281 -2.007812 1 -2.5 L 1.9375 -3.640625 L 2.1875 -3.640625 C 3.09375 -2.109375 4.492188 -1.34375 6.390625 -1.34375 C 7.492188 -1.34375 8.3125 -1.570312 8.84375 -2.03125 C 9.382812 -2.488281 9.65625 -3.128906 9.65625 -3.953125 C 9.65625 -4.429688 9.566406 -4.835938 9.390625 -5.171875 C 9.210938 -5.503906 8.921875 -5.789062 8.515625 -6.03125 C 8.109375 -6.269531 7.554688 -6.472656 6.859375 -6.640625 L 5.140625 -7.0625 C 3.867188 -7.375 2.929688 -7.863281 2.328125 -8.53125 C 1.722656 -9.207031 1.421875 -10.054688 1.421875 -11.078125 C 1.421875 -11.804688 1.609375 -12.457031 1.984375 -13.03125 C 2.359375 -13.601562 2.90625 -14.046875 3.625 -14.359375 C 4.34375 -14.679688 5.203125 -14.84375 6.203125 -14.84375 C 7.304688 -14.84375 8.234375 -14.6875 8.984375 -14.375 C 9.742188 -14.0625 10.351562 -13.597656 10.8125 -12.984375 L 9.96875 -11.859375 L 9.71875 -11.859375 C 9.300781 -12.367188 8.804688 -12.742188 8.234375 -12.984375 C 7.660156 -13.222656 6.984375 -13.34375 6.203125 -13.34375 C 5.191406 -13.34375 4.425781 -13.144531 3.90625 -12.75 C 3.394531 -12.351562 3.140625 -11.8125 3.140625 -11.125 C 3.140625 -10.457031 3.328125 -9.925781 3.703125 -9.53125 C 4.085938 -9.144531 4.726562 -8.847656 5.625 -8.640625 L 7.375 -8.21875 C 8.800781 -7.882812 9.832031 -7.367188 10.46875 -6.671875 C 11.101562 -5.984375 11.421875 -5.101562 11.421875 -4.03125 C 11.421875 -3.207031 11.234375 -2.472656 10.859375 -1.828125 C 10.492188 -1.191406 9.929688 -0.691406 9.171875 -0.328125 C 8.421875 0.0234375 7.492188 0.203125 6.390625 0.203125 Z M 6.390625 0.203125 "/></g></g></g><g fill="#004aad" fill-opacity="1"><g transform="translate(80.519313, 53.852225)"><g><path d="M 7.46875 -1.75 L 7.984375 -0.578125 C 7.722656 -0.316406 7.378906 -0.125 6.953125 0 C 6.535156 0.132812 6.078125 0.203125 5.578125 0.203125 C 3.472656 0.203125 2.421875 -0.863281 2.421875 -3 L 2.421875 -9.703125 L 0.5 -9.703125 L 0.5 -11.046875 L 2.421875 -11.046875 L 2.421875 -13.390625 L 4.046875 -13.65625 L 4.046875 -11.046875 L 7.609375 -11.046875 L 7.609375 -9.703125 L 4.046875 -9.703125 L 4.046875 -3.15625 C 4.046875 -1.882812 4.597656 -1.25 5.703125 -1.25 C 6.304688 -1.25 6.820312 -1.414062 7.25 -1.75 Z M 7.46875 -1.75 "/></g></g></g><g fill="#004aad" fill-opacity="1"><g transform="translate(86.795336, 53.852225)"><g><path d="M 6.34375 0.203125 C 5.300781 0.203125 4.394531 -0.015625 3.625 -0.453125 C 2.851562 -0.890625 2.257812 -1.535156 1.84375 -2.390625 C 1.425781 -3.253906 1.21875 -4.296875 1.21875 -5.515625 C 1.21875 -6.734375 1.425781 -7.773438 1.84375 -8.640625 C 2.257812 -9.503906 2.851562 -10.15625 3.625 -10.59375 C 4.394531 -11.03125 5.300781 -11.25 6.34375 -11.25 C 7.375 -11.25 8.273438 -11.03125 9.046875 -10.59375 C 9.816406 -10.15625 10.410156 -9.503906 10.828125 -8.640625 C 11.253906 -7.773438 11.46875 -6.734375 11.46875 -5.515625 C 11.46875 -4.296875 11.253906 -3.253906 10.828125 -2.390625 C 10.410156 -1.535156 9.816406 -0.890625 9.046875 -0.453125 C 8.273438 -0.015625 7.375 0.203125 6.34375 0.203125 Z M 6.34375 -1.25 C 7.4375 -1.25 8.273438 -1.59375 8.859375 -2.28125 C 9.441406 -2.976562 9.734375 -4.054688 9.734375 -5.515625 C 9.734375 -6.972656 9.441406 -8.050781 8.859375 -8.75 C 8.273438 -9.445312 7.4375 -9.796875 6.34375 -9.796875 C 5.238281 -9.796875 4.390625 -9.445312 3.796875 -8.75 C 3.210938 -8.050781 2.921875 -6.972656 2.921875 -5.515625 C 2.921875 -4.054688 3.210938 -2.976562 3.796875 -2.28125 C 4.390625 -1.59375 5.238281 -1.25 6.34375 -1.25 Z M 6.34375 -1.25 "/></g></g></g><g fill="#004aad" fill-opacity="1"><g transform="translate(97.336157, 53.852225)"><g><path d="M 1.921875 0 L 1.921875 -11.046875 L 3.46875 -11.046875 L 3.46875 -9.3125 L 3.6875 -9.265625 C 4.195312 -10.515625 5.164062 -11.140625 6.59375 -11.140625 C 7.34375 -11.140625 7.90625 -11.003906 8.28125 -10.734375 L 7.859375 -9.34375 L 7.65625 -9.3125 C 7.238281 -9.519531 6.785156 -9.625 6.296875 -9.625 C 5.410156 -9.625 4.726562 -9.289062 4.25 -8.625 C 3.78125 -7.96875 3.546875 -6.898438 3.546875 -5.421875 L 3.546875 0 Z M 1.921875 0 "/></g></g></g><g fill="#004aad" fill-opacity="1"><g transform="translate(103.732315, 53.852225)"><g><path d="M 10.515625 -5.140625 L 2.9375 -5.140625 C 2.976562 -3.804688 3.296875 -2.820312 3.890625 -2.1875 C 4.492188 -1.5625 5.316406 -1.25 6.359375 -1.25 C 7.140625 -1.25 7.769531 -1.390625 8.25 -1.671875 C 8.738281 -1.953125 9.117188 -2.394531 9.390625 -3 L 9.59375 -3 L 10.65625 -2.359375 C 10.34375 -1.554688 9.832031 -0.925781 9.125 -0.46875 C 8.414062 -0.0195312 7.492188 0.203125 6.359375 0.203125 C 5.285156 0.203125 4.363281 -0.00390625 3.59375 -0.421875 C 2.832031 -0.835938 2.242188 -1.472656 1.828125 -2.328125 C 1.421875 -3.179688 1.21875 -4.242188 1.21875 -5.515625 C 1.21875 -6.765625 1.429688 -7.820312 1.859375 -8.6875 C 2.296875 -9.550781 2.894531 -10.191406 3.65625 -10.609375 C 4.414062 -11.035156 5.28125 -11.25 6.25 -11.25 C 7.664062 -11.25 8.769531 -10.847656 9.5625 -10.046875 C 10.363281 -9.253906 10.765625 -8.070312 10.765625 -6.5 C 10.765625 -5.882812 10.753906 -5.472656 10.734375 -5.265625 Z M 9.15625 -6.5 C 9.132812 -7.675781 8.875 -8.53125 8.375 -9.0625 C 7.882812 -9.601562 7.175781 -9.875 6.25 -9.875 C 5.289062 -9.875 4.535156 -9.601562 3.984375 -9.0625 C 3.429688 -8.53125 3.09375 -7.675781 2.96875 -6.5 Z M 9.15625 -6.5 "/></g></g></g><g fill="#004aad" fill-opacity="1"><g transform="translate(31.885573, 61.775416)"><g><path d="M 1.40625 0.03125 C 1.175781 0.03125 0.96875 -0.015625 0.78125 -0.109375 C 0.601562 -0.203125 0.460938 -0.347656 0.359375 -0.546875 C 0.253906 -0.742188 0.203125 -0.992188 0.203125 -1.296875 C 0.203125 -1.585938 0.253906 -1.832031 0.359375 -2.03125 C 0.460938 -2.226562 0.601562 -2.375 0.78125 -2.46875 C 0.96875 -2.570312 1.175781 -2.625 1.40625 -2.625 C 1.644531 -2.625 1.851562 -2.578125 2.03125 -2.484375 C 2.21875 -2.390625 2.359375 -2.238281 2.453125 -2.03125 C 2.554688 -1.832031 2.609375 -1.585938 2.609375 -1.296875 C 2.609375 -0.992188 2.554688 -0.742188 2.453125 -0.546875 C 2.359375 -0.347656 2.21875 -0.203125 2.03125 -0.109375 C 1.851562 -0.015625 1.644531 0.03125 1.40625 0.03125 Z M 1.40625 -0.40625 C 1.625 -0.40625 1.789062 -0.472656 1.90625 -0.609375 C 2.03125 -0.753906 2.09375 -0.984375 2.09375 -1.296875 C 2.09375 -1.597656 2.03125 -1.820312 1.90625 -1.96875 C 1.789062 -2.113281 1.625 -2.1875 1.40625 -2.1875 C 1.1875 -2.1875 1.019531 -2.113281 0.90625 -1.96875 C 0.789062 -1.820312 0.734375 -1.597656 0.734375 -1.296875 C 0.734375 -0.984375 0.789062 -0.753906 0.90625 -0.609375 C 1.019531 -0.472656 1.1875 -0.40625 1.40625 -0.40625 Z M 1.40625 -0.40625 "/></g></g></g><g fill="#004aad" fill-opacity="1"><g transform="translate(36.943452, 61.775416)"><g><path d="M 0.828125 0 L 0.34375 0 L 0.34375 -2.59375 L 0.921875 -2.59375 L 1.96875 -0.921875 L 2 -0.921875 L 2 -2.59375 L 2.5 -2.59375 L 2.5 0 L 1.96875 0 L 0.875 -1.78125 L 0.828125 -1.78125 Z M 0.828125 0 "/></g></g></g><g fill="#004aad" fill-opacity="1"><g transform="translate(42.019042, 61.775416)"><g><path d="M 0.84375 -2.59375 L 0.84375 -0.421875 L 2.015625 -0.421875 L 2.015625 0 L 0.34375 0 L 0.34375 -2.59375 Z M 0.84375 -2.59375 "/></g></g></g><g fill="#004aad" fill-opacity="1"><g transform="translate(46.352543, 61.775416)"><g><path d="M 0.84375 0 L 0.34375 0 L 0.34375 -2.59375 L 0.84375 -2.59375 Z M 0.84375 0 "/></g></g></g><g fill="#004aad" fill-opacity="1"><g transform="translate(49.775702, 61.775416)"><g><path d="M 0.828125 0 L 0.34375 0 L 0.34375 -2.59375 L 0.921875 -2.59375 L 1.96875 -0.921875 L 2 -0.921875 L 2 -2.59375 L 2.5 -2.59375 L 2.5 0 L 1.96875 0 L 0.875 -1.78125 L 0.828125 -1.78125 Z M 0.828125 0 "/></g></g></g><g fill="#004aad" fill-opacity="1"><g transform="translate(54.851291, 61.775416)"><g><path d="M 0.84375 -1.140625 L 0.84375 -0.421875 L 2.078125 -0.421875 L 2.078125 0 L 0.34375 0 L 0.34375 -2.59375 L 2.0625 -2.59375 L 2.0625 -2.15625 L 0.84375 -2.15625 L 0.84375 -1.546875 L 1.90625 -1.546875 L 1.90625 -1.140625 Z M 0.84375 -1.140625 "/></g></g></g><g fill="#004aad" fill-opacity="1"><g transform="translate(59.314083, 61.775416)"><g/></g></g><g fill="#004aad" fill-opacity="1"><g transform="translate(62.40605, 61.775416)"><g><path d="M 1.140625 0.03125 C 0.960938 0.03125 0.800781 0.0078125 0.65625 -0.03125 C 0.519531 -0.0703125 0.40625 -0.128906 0.3125 -0.203125 C 0.21875 -0.273438 0.148438 -0.351562 0.109375 -0.4375 L 0.390625 -0.78125 L 0.4375 -0.78125 C 0.507812 -0.664062 0.601562 -0.570312 0.71875 -0.5 C 0.84375 -0.4375 0.984375 -0.40625 1.140625 -0.40625 C 1.285156 -0.40625 1.390625 -0.429688 1.453125 -0.484375 C 1.523438 -0.546875 1.5625 -0.628906 1.5625 -0.734375 C 1.5625 -0.796875 1.550781 -0.847656 1.53125 -0.890625 C 1.507812 -0.929688 1.472656 -0.960938 1.421875 -0.984375 C 1.367188 -1.015625 1.296875 -1.039062 1.203125 -1.0625 L 0.875 -1.140625 C 0.644531 -1.191406 0.472656 -1.28125 0.359375 -1.40625 C 0.242188 -1.53125 0.1875 -1.691406 0.1875 -1.890625 C 0.1875 -2.035156 0.222656 -2.160156 0.296875 -2.265625 C 0.367188 -2.378906 0.472656 -2.46875 0.609375 -2.53125 C 0.753906 -2.59375 0.921875 -2.625 1.109375 -2.625 C 1.304688 -2.625 1.476562 -2.597656 1.625 -2.546875 C 1.769531 -2.492188 1.890625 -2.410156 1.984375 -2.296875 L 1.734375 -1.953125 L 1.6875 -1.953125 C 1.613281 -2.035156 1.53125 -2.09375 1.4375 -2.125 C 1.34375 -2.164062 1.234375 -2.1875 1.109375 -2.1875 C 0.972656 -2.1875 0.867188 -2.160156 0.796875 -2.109375 C 0.722656 -2.066406 0.6875 -2 0.6875 -1.90625 C 0.6875 -1.820312 0.710938 -1.753906 0.765625 -1.703125 C 0.816406 -1.660156 0.90625 -1.625 1.03125 -1.59375 L 1.359375 -1.53125 C 1.617188 -1.476562 1.800781 -1.382812 1.90625 -1.25 C 2.019531 -1.125 2.078125 -0.960938 2.078125 -0.765625 C 2.078125 -0.597656 2.039062 -0.453125 1.96875 -0.328125 C 1.90625 -0.210938 1.800781 -0.125 1.65625 -0.0625 C 1.519531 0 1.347656 0.03125 1.140625 0.03125 Z M 1.140625 0.03125 "/></g></g></g><g fill="#004aad" fill-opacity="1"><g transform="translate(66.867069, 61.775416)"><g><path d="M 2.078125 -2.59375 L 2.078125 -2.15625 L 1.328125 -2.15625 L 1.328125 0 L 0.8125 0 L 0.8125 -2.15625 L 0.078125 -2.15625 L 0.078125 -2.59375 Z M 2.078125 -2.59375 "/></g></g></g><g fill="#004aad" fill-opacity="1"><g transform="translate(71.250161, 61.775416)"><g><path d="M 1.40625 0.03125 C 1.175781 0.03125 0.96875 -0.015625 0.78125 -0.109375 C 0.601562 -0.203125 0.460938 -0.347656 0.359375 -0.546875 C 0.253906 -0.742188 0.203125 -0.992188 0.203125 -1.296875 C 0.203125 -1.585938 0.253906 -1.832031 0.359375 -2.03125 C 0.460938 -2.226562 0.601562 -2.375 0.78125 -2.46875 C 0.96875 -2.570312 1.175781 -2.625 1.40625 -2.625 C 1.644531 -2.625 1.851562 -2.578125 2.03125 -2.484375 C 2.21875 -2.390625 2.359375 -2.238281 2.453125 -2.03125 C 2.554688 -1.832031 2.609375 -1.585938 2.609375 -1.296875 C 2.609375 -0.992188 2.554688 -0.742188 2.453125 -0.546875 C 2.359375 -0.347656 2.21875 -0.203125 2.03125 -0.109375 C 1.851562 -0.015625 1.644531 0.03125 1.40625 0.03125 Z M 1.40625 -0.40625 C 1.625 -0.40625 1.789062 -0.472656 1.90625 -0.609375 C 2.03125 -0.753906 2.09375 -0.984375 2.09375 -1.296875 C 2.09375 -1.597656 2.03125 -1.820312 1.90625 -1.96875 C 1.789062 -2.113281 1.625 -2.1875 1.40625 -2.1875 C 1.1875 -2.1875 1.019531 -2.113281 0.90625 -1.96875 C 0.789062 -1.820312 0.734375 -1.597656 0.734375 -1.296875 C 0.734375 -0.984375 0.789062 -0.753906 0.90625 -0.609375 C 1.019531 -0.472656 1.1875 -0.40625 1.40625 -0.40625 Z M 1.40625 -0.40625 "/></g></g></g><g fill="#004aad" fill-opacity="1"><g transform="translate(76.308039, 61.775416)"><g><path d="M 0.34375 0 L 0.34375 -2.59375 L 1.375 -2.59375 C 1.644531 -2.59375 1.847656 -2.53125 1.984375 -2.40625 C 2.117188 -2.28125 2.1875 -2.109375 2.1875 -1.890625 C 2.1875 -1.734375 2.144531 -1.601562 2.0625 -1.5 C 1.988281 -1.40625 1.867188 -1.332031 1.703125 -1.28125 L 1.703125 -1.234375 C 1.785156 -1.203125 1.851562 -1.148438 1.90625 -1.078125 C 1.957031 -1.015625 2.003906 -0.910156 2.046875 -0.765625 L 2.3125 0 L 1.78125 0 L 1.53125 -0.78125 C 1.5 -0.851562 1.46875 -0.910156 1.4375 -0.953125 C 1.40625 -0.992188 1.363281 -1.023438 1.3125 -1.046875 C 1.269531 -1.066406 1.207031 -1.078125 1.125 -1.078125 L 0.84375 -1.078125 L 0.84375 0 Z M 1.3125 -1.484375 C 1.5625 -1.484375 1.6875 -1.597656 1.6875 -1.828125 C 1.6875 -2.066406 1.5625 -2.1875 1.3125 -2.1875 L 0.84375 -2.1875 L 0.84375 -1.484375 Z M 1.3125 -1.484375 "/></g></g></g><g fill="#004aad" fill-opacity="1"><g transform="translate(80.965651, 61.775416)"><g><path d="M 0.84375 -1.140625 L 0.84375 -0.421875 L 2.078125 -0.421875 L 2.078125 0 L 0.34375 0 L 0.34375 -2.59375 L 2.0625 -2.59375 L 2.0625 -2.15625 L 0.84375 -2.15625 L 0.84375 -1.546875 L 1.90625 -1.546875 L 1.90625 -1.140625 Z M 0.84375 -1.140625 "/></g></g></g></svg>