<svg xmlns="http://www.w3.org/2000/svg" xmlns:xlink="http://www.w3.org/1999/xlink" width="500" zoomAndPan="magnify" viewBox="0 0 375 374.999991" height="500" preserveAspectRatio="xMidYMid meet" version="1.0"><defs><g/><clipPath id="ca3e0c0f62"><path d="M 37.5 164 L 78 164 L 78 207.730469 L 37.5 207.730469 Z M 37.5 164 " clip-rule="nonzero"/></clipPath><clipPath id="71feb6ee4d"><path d="M 47 152.230469 L 68 152.230469 L 68 165 L 47 165 Z M 47 152.230469 " clip-rule="nonzero"/></clipPath><clipPath id="8c347a4bdb"><path d="M 80 164 L 120.75 164 L 120.75 207.730469 L 80 207.730469 Z M 80 164 " clip-rule="nonzero"/></clipPath><clipPath id="6bb03613d5"><path d="M 90 152.230469 L 111 152.230469 L 111 165 L 90 165 Z M 90 152.230469 " clip-rule="nonzero"/></clipPath></defs><rect x="-37.5" width="450" fill="#ffffff" y="-37.499999" height="449.999989" fill-opacity="1"/><rect x="-37.5" width="450" fill="#ffffff" y="-37.499999" height="449.999989" fill-opacity="1"/><g clip-path="url(#ca3e0c0f62)"><path fill="#3b7bf8" d="M 60.269531 179.75 C 61.125 179.515625 62.007812 180.011719 62.242188 180.863281 C 64.152344 187.746094 70.132812 192.714844 77.132812 193.449219 L 77.132812 169.675781 C 77.132812 166.976562 74.945312 164.785156 72.246094 164.785156 L 42.382812 164.785156 C 39.679688 164.785156 37.488281 166.976562 37.488281 169.675781 L 37.488281 203.070312 C 37.488281 205.769531 39.679688 207.957031 42.382812 207.957031 L 72.246094 207.957031 C 74.945312 207.957031 77.132812 205.769531 77.132812 203.070312 L 77.132812 196.667969 C 68.699219 195.921875 61.449219 189.980469 59.15625 181.71875 C 58.921875 180.867188 59.417969 179.988281 60.269531 179.75 Z M 69.742188 177.789062 C 70.945312 177.789062 71.921875 178.773438 71.921875 179.992188 C 71.921875 181.203125 70.945312 182.191406 69.742188 182.191406 C 68.542969 182.191406 67.5625 181.203125 67.5625 179.992188 C 67.5625 178.773438 68.542969 177.789062 69.742188 177.789062 Z M 69.742188 177.789062 " fill-opacity="1" fill-rule="nonzero"/></g><g clip-path="url(#71feb6ee4d)"><path fill="#3b7bf8" d="M 67.0625 164.785156 L 63.863281 164.785156 L 63.863281 162.007812 C 63.863281 158.398438 60.925781 155.460938 57.316406 155.460938 C 53.703125 155.460938 50.765625 158.398438 50.765625 162.007812 L 50.765625 164.785156 L 47.566406 164.785156 L 47.566406 162.007812 C 47.566406 156.632812 51.941406 152.261719 57.316406 152.261719 C 62.6875 152.261719 67.066406 156.636719 67.066406 162.007812 L 67.066406 164.785156 Z M 67.0625 164.785156 " fill-opacity="1" fill-rule="nonzero"/></g><g clip-path="url(#8c347a4bdb)"><path fill="#3b7bf8" d="M 115.496094 164.785156 L 85.628906 164.785156 C 82.929688 164.785156 80.742188 166.976562 80.742188 169.675781 L 80.742188 193.449219 C 87.742188 192.71875 93.722656 187.746094 95.640625 180.863281 C 95.875 180.011719 96.753906 179.511719 97.605469 179.75 C 98.457031 179.988281 98.957031 180.867188 98.722656 181.71875 C 96.425781 189.980469 89.179688 195.921875 80.742188 196.667969 L 80.742188 203.070312 C 80.742188 205.769531 82.929688 207.957031 85.628906 207.957031 L 115.496094 207.957031 C 118.195312 207.957031 120.386719 205.769531 120.386719 203.070312 L 120.386719 169.675781 C 120.386719 166.976562 118.195312 164.785156 115.496094 164.785156 Z M 88.136719 182.191406 C 86.929688 182.191406 85.957031 181.203125 85.957031 179.992188 C 85.957031 178.773438 86.929688 177.789062 88.136719 177.789062 C 89.339844 177.789062 90.316406 178.773438 90.316406 179.992188 C 90.316406 181.203125 89.339844 182.191406 88.136719 182.191406 Z M 88.136719 182.191406 " fill-opacity="1" fill-rule="nonzero"/></g><g clip-path="url(#6bb03613d5)"><path fill="#3b7bf8" d="M 110.316406 164.785156 L 107.117188 164.785156 L 107.117188 162.007812 C 107.117188 158.398438 104.179688 155.460938 100.566406 155.460938 C 96.957031 155.460938 94.019531 158.398438 94.019531 162.007812 L 94.019531 164.785156 L 90.820312 164.785156 L 90.820312 162.007812 C 90.820312 156.632812 95.195312 152.261719 100.566406 152.261719 C 105.945312 152.261719 110.320312 156.636719 110.320312 162.007812 L 110.320312 164.785156 Z M 110.316406 164.785156 " fill-opacity="1" fill-rule="nonzero"/></g><g fill="#7ed957" fill-opacity="1"><g transform="translate(131.70247, 183.439675)"><g><path d="M 14.015625 -19.5625 L 14.015625 -16.390625 L 5.859375 -16.390625 L 5.859375 -11.375 L 12.109375 -11.375 L 12.109375 -8.265625 L 5.859375 -8.265625 L 5.859375 0 L 1.9375 0 L 1.9375 -19.5625 Z M 14.015625 -19.5625 "/></g></g></g><g fill="#7ed957" fill-opacity="1"><g transform="translate(147.954469, 183.439675)"><g><path d="M 13.9375 -3.734375 L 6.140625 -3.734375 L 4.84375 0 L 0.734375 0 L 7.765625 -19.59375 L 12.328125 -19.59375 L 19.375 0 L 15.21875 0 Z M 12.859375 -6.875 L 10.03125 -15.046875 L 7.203125 -6.875 Z M 12.859375 -6.875 "/></g></g></g><g fill="#7ed957" fill-opacity="1"><g transform="translate(169.418118, 183.439675)"><g><path d="M 8.6875 0.203125 C 7.320312 0.203125 6.09375 -0.03125 5 -0.5 C 3.90625 -0.96875 3.039062 -1.640625 2.40625 -2.515625 C 1.769531 -3.398438 1.441406 -4.441406 1.421875 -5.640625 L 5.640625 -5.640625 C 5.691406 -4.828125 5.972656 -4.1875 6.484375 -3.71875 C 7.003906 -3.257812 7.710938 -3.03125 8.609375 -3.03125 C 9.523438 -3.03125 10.242188 -3.25 10.765625 -3.6875 C 11.285156 -4.125 11.546875 -4.695312 11.546875 -5.40625 C 11.546875 -5.988281 11.367188 -6.46875 11.015625 -6.84375 C 10.660156 -7.21875 10.21875 -7.507812 9.6875 -7.71875 C 9.15625 -7.9375 8.421875 -8.175781 7.484375 -8.4375 C 6.210938 -8.8125 5.179688 -9.179688 4.390625 -9.546875 C 3.597656 -9.910156 2.914062 -10.460938 2.34375 -11.203125 C 1.769531 -11.941406 1.484375 -12.925781 1.484375 -14.15625 C 1.484375 -15.3125 1.769531 -16.316406 2.34375 -17.171875 C 2.925781 -18.035156 3.738281 -18.695312 4.78125 -19.15625 C 5.832031 -19.613281 7.03125 -19.84375 8.375 -19.84375 C 10.394531 -19.84375 12.035156 -19.351562 13.296875 -18.375 C 14.554688 -17.394531 15.253906 -16.023438 15.390625 -14.265625 L 11.078125 -14.265625 C 11.035156 -14.941406 10.75 -15.5 10.21875 -15.9375 C 9.6875 -16.375 8.976562 -16.59375 8.09375 -16.59375 C 7.332031 -16.59375 6.722656 -16.394531 6.265625 -16 C 5.804688 -15.613281 5.578125 -15.046875 5.578125 -14.296875 C 5.578125 -13.773438 5.75 -13.335938 6.09375 -12.984375 C 6.4375 -12.640625 6.863281 -12.359375 7.375 -12.140625 C 7.894531 -11.929688 8.625 -11.6875 9.5625 -11.40625 C 10.832031 -11.03125 11.867188 -10.65625 12.671875 -10.28125 C 13.472656 -9.914062 14.160156 -9.359375 14.734375 -8.609375 C 15.316406 -7.859375 15.609375 -6.875 15.609375 -5.65625 C 15.609375 -4.613281 15.335938 -3.644531 14.796875 -2.75 C 14.253906 -1.851562 13.457031 -1.132812 12.40625 -0.59375 C 11.363281 -0.0625 10.125 0.203125 8.6875 0.203125 Z M 8.6875 0.203125 "/></g></g></g><g fill="#7ed957" fill-opacity="1"><g transform="translate(187.883665, 183.439675)"><g><path d="M 18.171875 -19.5625 L 18.171875 0 L 14.234375 0 L 14.234375 -8.328125 L 5.859375 -8.328125 L 5.859375 0 L 1.9375 0 L 1.9375 -19.5625 L 5.859375 -19.5625 L 5.859375 -11.515625 L 14.234375 -11.515625 L 14.234375 -19.5625 Z M 18.171875 -19.5625 "/></g></g></g><g fill="#7ed957" fill-opacity="1"><g transform="translate(209.37533, 183.439675)"><g><path d="M 5.859375 -19.5625 L 5.859375 0 L 1.9375 0 L 1.9375 -19.5625 Z M 5.859375 -19.5625 "/></g></g></g><g fill="#7ed957" fill-opacity="1"><g transform="translate(218.566394, 183.439675)"><g><path d="M 11.015625 0.203125 C 9.179688 0.203125 7.5 -0.222656 5.96875 -1.078125 C 4.4375 -1.941406 3.222656 -3.132812 2.328125 -4.65625 C 1.429688 -6.1875 0.984375 -7.914062 0.984375 -9.84375 C 0.984375 -11.75 1.429688 -13.460938 2.328125 -14.984375 C 3.222656 -16.503906 4.4375 -17.691406 5.96875 -18.546875 C 7.5 -19.410156 9.179688 -19.84375 11.015625 -19.84375 C 12.867188 -19.84375 14.554688 -19.410156 16.078125 -18.546875 C 17.597656 -17.691406 18.800781 -16.503906 19.6875 -14.984375 C 20.582031 -13.460938 21.03125 -11.75 21.03125 -9.84375 C 21.03125 -7.914062 20.582031 -6.1875 19.6875 -4.65625 C 18.800781 -3.132812 17.59375 -1.941406 16.0625 -1.078125 C 14.53125 -0.222656 12.847656 0.203125 11.015625 0.203125 Z M 11.015625 -3.3125 C 12.191406 -3.3125 13.226562 -3.578125 14.125 -4.109375 C 15.019531 -4.640625 15.71875 -5.398438 16.21875 -6.390625 C 16.726562 -7.378906 16.984375 -8.53125 16.984375 -9.84375 C 16.984375 -11.144531 16.726562 -12.285156 16.21875 -13.265625 C 15.71875 -14.253906 15.019531 -15.007812 14.125 -15.53125 C 13.226562 -16.050781 12.191406 -16.3125 11.015625 -16.3125 C 9.835938 -16.3125 8.796875 -16.050781 7.890625 -15.53125 C 6.984375 -15.007812 6.273438 -14.253906 5.765625 -13.265625 C 5.265625 -12.285156 5.015625 -11.144531 5.015625 -9.84375 C 5.015625 -8.53125 5.265625 -7.378906 5.765625 -6.390625 C 6.273438 -5.398438 6.984375 -4.640625 7.890625 -4.109375 C 8.796875 -3.578125 9.835938 -3.3125 11.015625 -3.3125 Z M 11.015625 -3.3125 "/></g></g></g><g fill="#7ed957" fill-opacity="1"><g transform="translate(241.963392, 183.439675)"><g><path d="M 18.671875 0 L 14.75 0 L 5.859375 -13.421875 L 5.859375 0 L 1.9375 0 L 1.9375 -19.59375 L 5.859375 -19.59375 L 14.75 -6.140625 L 14.75 -19.59375 L 18.671875 -19.59375 Z M 18.671875 0 "/></g></g></g><g fill="#7ed957" fill-opacity="1"><g transform="translate(263.959404, 183.439675)"><g/></g></g><g fill="#7ed957" fill-opacity="1"><g transform="translate(272.029674, 183.439675)"><g><path d="M 8.6875 0.203125 C 7.320312 0.203125 6.09375 -0.03125 5 -0.5 C 3.90625 -0.96875 3.039062 -1.640625 2.40625 -2.515625 C 1.769531 -3.398438 1.441406 -4.441406 1.421875 -5.640625 L 5.640625 -5.640625 C 5.691406 -4.828125 5.972656 -4.1875 6.484375 -3.71875 C 7.003906 -3.257812 7.710938 -3.03125 8.609375 -3.03125 C 9.523438 -3.03125 10.242188 -3.25 10.765625 -3.6875 C 11.285156 -4.125 11.546875 -4.695312 11.546875 -5.40625 C 11.546875 -5.988281 11.367188 -6.46875 11.015625 -6.84375 C 10.660156 -7.21875 10.21875 -7.507812 9.6875 -7.71875 C 9.15625 -7.9375 8.421875 -8.175781 7.484375 -8.4375 C 6.210938 -8.8125 5.179688 -9.179688 4.390625 -9.546875 C 3.597656 -9.910156 2.914062 -10.460938 2.34375 -11.203125 C 1.769531 -11.941406 1.484375 -12.925781 1.484375 -14.15625 C 1.484375 -15.3125 1.769531 -16.316406 2.34375 -17.171875 C 2.925781 -18.035156 3.738281 -18.695312 4.78125 -19.15625 C 5.832031 -19.613281 7.03125 -19.84375 8.375 -19.84375 C 10.394531 -19.84375 12.035156 -19.351562 13.296875 -18.375 C 14.554688 -17.394531 15.253906 -16.023438 15.390625 -14.265625 L 11.078125 -14.265625 C 11.035156 -14.941406 10.75 -15.5 10.21875 -15.9375 C 9.6875 -16.375 8.976562 -16.59375 8.09375 -16.59375 C 7.332031 -16.59375 6.722656 -16.394531 6.265625 -16 C 5.804688 -15.613281 5.578125 -15.046875 5.578125 -14.296875 C 5.578125 -13.773438 5.75 -13.335938 6.09375 -12.984375 C 6.4375 -12.640625 6.863281 -12.359375 7.375 -12.140625 C 7.894531 -11.929688 8.625 -11.6875 9.5625 -11.40625 C 10.832031 -11.03125 11.867188 -10.65625 12.671875 -10.28125 C 13.472656 -9.914062 14.160156 -9.359375 14.734375 -8.609375 C 15.316406 -7.859375 15.609375 -6.875 15.609375 -5.65625 C 15.609375 -4.613281 15.335938 -3.644531 14.796875 -2.75 C 14.253906 -1.851562 13.457031 -1.132812 12.40625 -0.59375 C 11.363281 -0.0625 10.125 0.203125 8.6875 0.203125 Z M 8.6875 0.203125 "/></g></g></g><g fill="#7ed957" fill-opacity="1"><g transform="translate(290.495219, 183.439675)"><g><path d="M 15.25 -19.5625 L 15.25 -16.390625 L 10.03125 -16.390625 L 10.03125 0 L 6.109375 0 L 6.109375 -16.390625 L 0.890625 -16.390625 L 0.890625 -19.5625 Z M 15.25 -19.5625 "/></g></g></g><g fill="#7ed957" fill-opacity="1"><g transform="translate(308.064131, 183.439675)"><g><path d="M 11.015625 0.203125 C 9.179688 0.203125 7.5 -0.222656 5.96875 -1.078125 C 4.4375 -1.941406 3.222656 -3.132812 2.328125 -4.65625 C 1.429688 -6.1875 0.984375 -7.914062 0.984375 -9.84375 C 0.984375 -11.75 1.429688 -13.460938 2.328125 -14.984375 C 3.222656 -16.503906 4.4375 -17.691406 5.96875 -18.546875 C 7.5 -19.410156 9.179688 -19.84375 11.015625 -19.84375 C 12.867188 -19.84375 14.554688 -19.410156 16.078125 -18.546875 C 17.597656 -17.691406 18.800781 -16.503906 19.6875 -14.984375 C 20.582031 -13.460938 21.03125 -11.75 21.03125 -9.84375 C 21.03125 -7.914062 20.582031 -6.1875 19.6875 -4.65625 C 18.800781 -3.132812 17.59375 -1.941406 16.0625 -1.078125 C 14.53125 -0.222656 12.847656 0.203125 11.015625 0.203125 Z M 11.015625 -3.3125 C 12.191406 -3.3125 13.226562 -3.578125 14.125 -4.109375 C 15.019531 -4.640625 15.71875 -5.398438 16.21875 -6.390625 C 16.726562 -7.378906 16.984375 -8.53125 16.984375 -9.84375 C 16.984375 -11.144531 16.726562 -12.285156 16.21875 -13.265625 C 15.71875 -14.253906 15.019531 -15.007812 14.125 -15.53125 C 13.226562 -16.050781 12.191406 -16.3125 11.015625 -16.3125 C 9.835938 -16.3125 8.796875 -16.050781 7.890625 -15.53125 C 6.984375 -15.007812 6.273438 -14.253906 5.765625 -13.265625 C 5.265625 -12.285156 5.015625 -11.144531 5.015625 -9.84375 C 5.015625 -8.53125 5.265625 -7.378906 5.765625 -6.390625 C 6.273438 -5.398438 6.984375 -4.640625 7.890625 -4.109375 C 8.796875 -3.578125 9.835938 -3.3125 11.015625 -3.3125 Z M 11.015625 -3.3125 "/></g></g></g><g fill="#7ed957" fill-opacity="1"><g transform="translate(331.461139, 183.439675)"><g><path d="M 12.03125 0 L 7.703125 -7.625 L 5.859375 -7.625 L 5.859375 0 L 1.9375 0 L 1.9375 -19.5625 L 9.28125 -19.5625 C 10.789062 -19.5625 12.078125 -19.296875 13.140625 -18.765625 C 14.210938 -18.234375 15.015625 -17.515625 15.546875 -16.609375 C 16.078125 -15.703125 16.34375 -14.6875 16.34375 -13.5625 C 16.34375 -12.28125 15.96875 -11.117188 15.21875 -10.078125 C 14.46875 -9.035156 13.359375 -8.320312 11.890625 -7.9375 L 16.5625 0 Z M 5.859375 -10.5625 L 9.140625 -10.5625 C 10.203125 -10.5625 10.992188 -10.816406 11.515625 -11.328125 C 12.046875 -11.847656 12.3125 -12.566406 12.3125 -13.484375 C 12.3125 -14.378906 12.046875 -15.070312 11.515625 -15.5625 C 10.992188 -16.0625 10.203125 -16.3125 9.140625 -16.3125 L 5.859375 -16.3125 Z M 5.859375 -10.5625 "/></g></g></g><g fill="#7ed957" fill-opacity="1"><g transform="translate(350.823305, 183.439675)"><g><path d="M 5.859375 -16.390625 L 5.859375 -11.5 L 12.453125 -11.5 L 12.453125 -8.375 L 5.859375 -8.375 L 5.859375 -3.203125 L 13.28125 -3.203125 L 13.28125 0 L 1.9375 0 L 1.9375 -19.59375 L 13.28125 -19.59375 L 13.28125 -16.390625 Z M 5.859375 -16.390625 "/></g></g></g><g fill="#3b7bf8" fill-opacity="1"><g transform="translate(131.70247, 206.307172)"><g><path d="M 2.5 -9.25 L 2.5 -5.78125 L 6.265625 -5.78125 L 6.265625 -4.671875 L 2.5 -4.671875 L 2.5 -1.109375 L 6.703125 -1.109375 L 6.703125 0 L 1.140625 0 L 1.140625 -10.359375 L 6.703125 -10.359375 L 6.703125 -9.25 Z M 2.5 -9.25 "/></g></g></g><g fill="#3b7bf8" fill-opacity="1"><g transform="translate(141.541761, 206.307172)"><g><path d="M 7.265625 -2.296875 L 2.75 -2.296875 L 1.921875 0 L 0.484375 0 L 4.234375 -10.28125 L 5.78125 -10.28125 L 9.515625 0 L 8.09375 0 Z M 6.875 -3.40625 L 5 -8.625 L 3.125 -3.40625 Z M 6.875 -3.40625 "/></g></g></g><g fill="#3b7bf8" fill-opacity="1"><g transform="translate(153.770371, 206.307172)"><g><path d="M 4.421875 0.109375 C 3.742188 0.109375 3.132812 -0.0078125 2.59375 -0.25 C 2.050781 -0.5 1.625 -0.835938 1.3125 -1.265625 C 1.007812 -1.703125 0.851562 -2.203125 0.84375 -2.765625 L 2.28125 -2.765625 C 2.332031 -2.273438 2.53125 -1.863281 2.875 -1.53125 C 3.226562 -1.195312 3.742188 -1.03125 4.421875 -1.03125 C 5.066406 -1.03125 5.570312 -1.191406 5.9375 -1.515625 C 6.3125 -1.835938 6.5 -2.253906 6.5 -2.765625 C 6.5 -3.160156 6.390625 -3.476562 6.171875 -3.71875 C 5.953125 -3.96875 5.679688 -4.15625 5.359375 -4.28125 C 5.035156 -4.414062 4.59375 -4.554688 4.03125 -4.703125 C 3.351562 -4.878906 2.804688 -5.054688 2.390625 -5.234375 C 1.984375 -5.410156 1.632812 -5.691406 1.34375 -6.078125 C 1.050781 -6.460938 0.90625 -6.972656 0.90625 -7.609375 C 0.90625 -8.171875 1.046875 -8.671875 1.328125 -9.109375 C 1.617188 -9.546875 2.023438 -9.882812 2.546875 -10.125 C 3.066406 -10.363281 3.660156 -10.484375 4.328125 -10.484375 C 5.296875 -10.484375 6.085938 -10.238281 6.703125 -9.75 C 7.328125 -9.269531 7.679688 -8.628906 7.765625 -7.828125 L 6.28125 -7.828125 C 6.226562 -8.222656 6.019531 -8.570312 5.65625 -8.875 C 5.289062 -9.175781 4.804688 -9.328125 4.203125 -9.328125 C 3.640625 -9.328125 3.175781 -9.179688 2.8125 -8.890625 C 2.457031 -8.597656 2.28125 -8.1875 2.28125 -7.65625 C 2.28125 -7.28125 2.382812 -6.972656 2.59375 -6.734375 C 2.8125 -6.492188 3.078125 -6.3125 3.390625 -6.1875 C 3.703125 -6.070312 4.140625 -5.9375 4.703125 -5.78125 C 5.390625 -5.582031 5.9375 -5.390625 6.34375 -5.203125 C 6.757812 -5.023438 7.113281 -4.742188 7.40625 -4.359375 C 7.707031 -3.984375 7.859375 -3.46875 7.859375 -2.8125 C 7.859375 -2.3125 7.722656 -1.835938 7.453125 -1.390625 C 7.191406 -0.953125 6.796875 -0.59375 6.265625 -0.3125 C 5.742188 -0.03125 5.128906 0.109375 4.421875 0.109375 Z M 4.421875 0.109375 "/></g></g></g><g fill="#3b7bf8" fill-opacity="1"><g transform="translate(164.707854, 206.307172)"><g><path d="M 8.390625 -10.34375 L 5.015625 -3.90625 L 5.015625 0 L 3.671875 0 L 3.671875 -3.90625 L 0.28125 -10.34375 L 1.78125 -10.34375 L 4.328125 -5.109375 L 6.890625 -10.34375 Z M 8.390625 -10.34375 "/></g></g></g><g fill="#3b7bf8" fill-opacity="1"><g transform="translate(175.600822, 206.307172)"><g/></g></g><g fill="#3b7bf8" fill-opacity="1"><g transform="translate(181.789338, 206.307172)"><g><path d="M 4.421875 0.109375 C 3.742188 0.109375 3.132812 -0.0078125 2.59375 -0.25 C 2.050781 -0.5 1.625 -0.835938 1.3125 -1.265625 C 1.007812 -1.703125 0.851562 -2.203125 0.84375 -2.765625 L 2.28125 -2.765625 C 2.332031 -2.273438 2.53125 -1.863281 2.875 -1.53125 C 3.226562 -1.195312 3.742188 -1.03125 4.421875 -1.03125 C 5.066406 -1.03125 5.570312 -1.191406 5.9375 -1.515625 C 6.3125 -1.835938 6.5 -2.253906 6.5 -2.765625 C 6.5 -3.160156 6.390625 -3.476562 6.171875 -3.71875 C 5.953125 -3.96875 5.679688 -4.15625 5.359375 -4.28125 C 5.035156 -4.414062 4.59375 -4.554688 4.03125 -4.703125 C 3.351562 -4.878906 2.804688 -5.054688 2.390625 -5.234375 C 1.984375 -5.410156 1.632812 -5.691406 1.34375 -6.078125 C 1.050781 -6.460938 0.90625 -6.972656 0.90625 -7.609375 C 0.90625 -8.171875 1.046875 -8.671875 1.328125 -9.109375 C 1.617188 -9.546875 2.023438 -9.882812 2.546875 -10.125 C 3.066406 -10.363281 3.660156 -10.484375 4.328125 -10.484375 C 5.296875 -10.484375 6.085938 -10.238281 6.703125 -9.75 C 7.328125 -9.269531 7.679688 -8.628906 7.765625 -7.828125 L 6.28125 -7.828125 C 6.226562 -8.222656 6.019531 -8.570312 5.65625 -8.875 C 5.289062 -9.175781 4.804688 -9.328125 4.203125 -9.328125 C 3.640625 -9.328125 3.175781 -9.179688 2.8125 -8.890625 C 2.457031 -8.597656 2.28125 -8.1875 2.28125 -7.65625 C 2.28125 -7.28125 2.382812 -6.972656 2.59375 -6.734375 C 2.8125 -6.492188 3.078125 -6.3125 3.390625 -6.1875 C 3.703125 -6.070312 4.140625 -5.9375 4.703125 -5.78125 C 5.390625 -5.582031 5.9375 -5.390625 6.34375 -5.203125 C 6.757812 -5.023438 7.113281 -4.742188 7.40625 -4.359375 C 7.707031 -3.984375 7.859375 -3.46875 7.859375 -2.8125 C 7.859375 -2.3125 7.722656 -1.835938 7.453125 -1.390625 C 7.191406 -0.953125 6.796875 -0.59375 6.265625 -0.3125 C 5.742188 -0.03125 5.128906 0.109375 4.421875 0.109375 Z M 4.421875 0.109375 "/></g></g></g><g fill="#3b7bf8" fill-opacity="1"><g transform="translate(192.726821, 206.307172)"><g><path d="M 9.109375 -10.34375 L 9.109375 0 L 7.765625 0 L 7.765625 -4.6875 L 2.5 -4.6875 L 2.5 0 L 1.140625 0 L 1.140625 -10.34375 L 2.5 -10.34375 L 2.5 -5.796875 L 7.765625 -5.796875 L 7.765625 -10.34375 Z M 9.109375 -10.34375 "/></g></g></g><g fill="#3b7bf8" fill-opacity="1"><g transform="translate(205.222566, 206.307172)"><g><path d="M 5.828125 0.109375 C 4.867188 0.109375 3.992188 -0.113281 3.203125 -0.5625 C 2.410156 -1.019531 1.785156 -1.648438 1.328125 -2.453125 C 0.867188 -3.265625 0.640625 -4.175781 0.640625 -5.1875 C 0.640625 -6.1875 0.867188 -7.085938 1.328125 -7.890625 C 1.785156 -8.703125 2.410156 -9.332031 3.203125 -9.78125 C 3.992188 -10.238281 4.867188 -10.46875 5.828125 -10.46875 C 6.796875 -10.46875 7.675781 -10.238281 8.46875 -9.78125 C 9.257812 -9.332031 9.882812 -8.707031 10.34375 -7.90625 C 10.800781 -7.101562 11.03125 -6.195312 11.03125 -5.1875 C 11.03125 -4.164062 10.800781 -3.253906 10.34375 -2.453125 C 9.882812 -1.648438 9.257812 -1.019531 8.46875 -0.5625 C 7.675781 -0.113281 6.796875 0.109375 5.828125 0.109375 Z M 5.828125 -1.0625 C 6.554688 -1.0625 7.207031 -1.226562 7.78125 -1.5625 C 8.363281 -1.90625 8.816406 -2.390625 9.140625 -3.015625 C 9.472656 -3.640625 9.640625 -4.363281 9.640625 -5.1875 C 9.640625 -6.007812 9.472656 -6.726562 9.140625 -7.34375 C 8.816406 -7.96875 8.367188 -8.445312 7.796875 -8.78125 C 7.222656 -9.125 6.566406 -9.296875 5.828125 -9.296875 C 5.097656 -9.296875 4.445312 -9.125 3.875 -8.78125 C 3.300781 -8.445312 2.847656 -7.96875 2.515625 -7.34375 C 2.179688 -6.726562 2.015625 -6.007812 2.015625 -5.1875 C 2.015625 -4.363281 2.179688 -3.640625 2.515625 -3.015625 C 2.847656 -2.390625 3.300781 -1.90625 3.875 -1.5625 C 4.457031 -1.226562 5.109375 -1.0625 5.828125 -1.0625 Z M 5.828125 -1.0625 "/></g></g></g><g fill="#3b7bf8" fill-opacity="1"><g transform="translate(219.113312, 206.307172)"><g><path d="M 8.0625 -7.3125 C 8.0625 -6.457031 7.765625 -5.742188 7.171875 -5.171875 C 6.585938 -4.597656 5.691406 -4.3125 4.484375 -4.3125 L 2.5 -4.3125 L 2.5 0 L 1.140625 0 L 1.140625 -10.34375 L 4.484375 -10.34375 C 5.648438 -10.34375 6.535156 -10.0625 7.140625 -9.5 C 7.753906 -8.9375 8.0625 -8.207031 8.0625 -7.3125 Z M 4.484375 -5.4375 C 5.234375 -5.4375 5.785156 -5.597656 6.140625 -5.921875 C 6.492188 -6.242188 6.671875 -6.707031 6.671875 -7.3125 C 6.671875 -8.59375 5.941406 -9.234375 4.484375 -9.234375 L 2.5 -9.234375 L 2.5 -5.4375 Z M 4.484375 -5.4375 "/></g></g></g><g fill="#3b7bf8" fill-opacity="1"><g transform="translate(229.932075, 206.307172)"><g><path d="M 8.0625 -7.3125 C 8.0625 -6.457031 7.765625 -5.742188 7.171875 -5.171875 C 6.585938 -4.597656 5.691406 -4.3125 4.484375 -4.3125 L 2.5 -4.3125 L 2.5 0 L 1.140625 0 L 1.140625 -10.34375 L 4.484375 -10.34375 C 5.648438 -10.34375 6.535156 -10.0625 7.140625 -9.5 C 7.753906 -8.9375 8.0625 -8.207031 8.0625 -7.3125 Z M 4.484375 -5.4375 C 5.234375 -5.4375 5.785156 -5.597656 6.140625 -5.921875 C 6.492188 -6.242188 6.671875 -6.707031 6.671875 -7.3125 C 6.671875 -8.59375 5.941406 -9.234375 4.484375 -9.234375 L 2.5 -9.234375 L 2.5 -5.4375 Z M 4.484375 -5.4375 "/></g></g></g><g fill="#3b7bf8" fill-opacity="1"><g transform="translate(240.750846, 206.307172)"><g><path d="M 2.5 -10.34375 L 2.5 0 L 1.140625 0 L 1.140625 -10.34375 Z M 2.5 -10.34375 "/></g></g></g><g fill="#3b7bf8" fill-opacity="1"><g transform="translate(246.627717, 206.307172)"><g><path d="M 9.28125 0 L 7.921875 0 L 2.5 -8.234375 L 2.5 0 L 1.140625 0 L 1.140625 -10.359375 L 2.5 -10.359375 L 7.921875 -2.140625 L 7.921875 -10.359375 L 9.28125 -10.359375 Z M 9.28125 0 "/></g></g></g><g fill="#3b7bf8" fill-opacity="1"><g transform="translate(259.286699, 206.307172)"><g><path d="M 8.984375 -7.34375 C 8.691406 -7.945312 8.273438 -8.414062 7.734375 -8.75 C 7.191406 -9.082031 6.554688 -9.25 5.828125 -9.25 C 5.109375 -9.25 4.457031 -9.082031 3.875 -8.75 C 3.300781 -8.414062 2.847656 -7.9375 2.515625 -7.3125 C 2.179688 -6.695312 2.015625 -5.988281 2.015625 -5.1875 C 2.015625 -4.375 2.179688 -3.660156 2.515625 -3.046875 C 2.847656 -2.429688 3.300781 -1.957031 3.875 -1.625 C 4.457031 -1.289062 5.109375 -1.125 5.828125 -1.125 C 6.835938 -1.125 7.671875 -1.425781 8.328125 -2.03125 C 8.984375 -2.632812 9.363281 -3.453125 9.46875 -4.484375 L 5.34375 -4.484375 L 5.34375 -5.578125 L 10.90625 -5.578125 L 10.90625 -4.546875 C 10.832031 -3.691406 10.566406 -2.910156 10.109375 -2.203125 C 9.648438 -1.492188 9.050781 -0.929688 8.3125 -0.515625 C 7.570312 -0.109375 6.742188 0.09375 5.828125 0.09375 C 4.867188 0.09375 3.992188 -0.128906 3.203125 -0.578125 C 2.410156 -1.035156 1.785156 -1.664062 1.328125 -2.46875 C 0.867188 -3.269531 0.640625 -4.175781 0.640625 -5.1875 C 0.640625 -6.1875 0.867188 -7.085938 1.328125 -7.890625 C 1.785156 -8.703125 2.410156 -9.332031 3.203125 -9.78125 C 3.992188 -10.238281 4.867188 -10.46875 5.828125 -10.46875 C 6.929688 -10.46875 7.90625 -10.191406 8.75 -9.640625 C 9.59375 -9.097656 10.207031 -8.332031 10.59375 -7.34375 Z M 8.984375 -7.34375 "/></g></g></g><g fill="#3b7bf8" fill-opacity="1"><g transform="translate(273.058725, 206.307172)"><g/></g></g><g fill="#3b7bf8" fill-opacity="1"><g transform="translate(279.247246, 206.307172)"><g><path d="M 4.421875 0.109375 C 3.742188 0.109375 3.132812 -0.0078125 2.59375 -0.25 C 2.050781 -0.5 1.625 -0.835938 1.3125 -1.265625 C 1.007812 -1.703125 0.851562 -2.203125 0.84375 -2.765625 L 2.28125 -2.765625 C 2.332031 -2.273438 2.53125 -1.863281 2.875 -1.53125 C 3.226562 -1.195312 3.742188 -1.03125 4.421875 -1.03125 C 5.066406 -1.03125 5.570312 -1.191406 5.9375 -1.515625 C 6.3125 -1.835938 6.5 -2.253906 6.5 -2.765625 C 6.5 -3.160156 6.390625 -3.476562 6.171875 -3.71875 C 5.953125 -3.96875 5.679688 -4.15625 5.359375 -4.28125 C 5.035156 -4.414062 4.59375 -4.554688 4.03125 -4.703125 C 3.351562 -4.878906 2.804688 -5.054688 2.390625 -5.234375 C 1.984375 -5.410156 1.632812 -5.691406 1.34375 -6.078125 C 1.050781 -6.460938 0.90625 -6.972656 0.90625 -7.609375 C 0.90625 -8.171875 1.046875 -8.671875 1.328125 -9.109375 C 1.617188 -9.546875 2.023438 -9.882812 2.546875 -10.125 C 3.066406 -10.363281 3.660156 -10.484375 4.328125 -10.484375 C 5.296875 -10.484375 6.085938 -10.238281 6.703125 -9.75 C 7.328125 -9.269531 7.679688 -8.628906 7.765625 -7.828125 L 6.28125 -7.828125 C 6.226562 -8.222656 6.019531 -8.570312 5.65625 -8.875 C 5.289062 -9.175781 4.804688 -9.328125 4.203125 -9.328125 C 3.640625 -9.328125 3.175781 -9.179688 2.8125 -8.890625 C 2.457031 -8.597656 2.28125 -8.1875 2.28125 -7.65625 C 2.28125 -7.28125 2.382812 -6.972656 2.59375 -6.734375 C 2.8125 -6.492188 3.078125 -6.3125 3.390625 -6.1875 C 3.703125 -6.070312 4.140625 -5.9375 4.703125 -5.78125 C 5.390625 -5.582031 5.9375 -5.390625 6.34375 -5.203125 C 6.757812 -5.023438 7.113281 -4.742188 7.40625 -4.359375 C 7.707031 -3.984375 7.859375 -3.46875 7.859375 -2.8125 C 7.859375 -2.3125 7.722656 -1.835938 7.453125 -1.390625 C 7.191406 -0.953125 6.796875 -0.59375 6.265625 -0.3125 C 5.742188 -0.03125 5.128906 0.109375 4.421875 0.109375 Z M 4.421875 0.109375 "/></g></g></g><g fill="#3b7bf8" fill-opacity="1"><g transform="translate(290.184724, 206.307172)"><g><path d="M 5.828125 0.109375 C 4.867188 0.109375 3.992188 -0.113281 3.203125 -0.5625 C 2.410156 -1.019531 1.785156 -1.648438 1.328125 -2.453125 C 0.867188 -3.265625 0.640625 -4.175781 0.640625 -5.1875 C 0.640625 -6.1875 0.867188 -7.085938 1.328125 -7.890625 C 1.785156 -8.703125 2.410156 -9.332031 3.203125 -9.78125 C 3.992188 -10.238281 4.867188 -10.46875 5.828125 -10.46875 C 6.796875 -10.46875 7.675781 -10.238281 8.46875 -9.78125 C 9.257812 -9.332031 9.882812 -8.707031 10.34375 -7.90625 C 10.800781 -7.101562 11.03125 -6.195312 11.03125 -5.1875 C 11.03125 -4.164062 10.800781 -3.253906 10.34375 -2.453125 C 9.882812 -1.648438 9.257812 -1.019531 8.46875 -0.5625 C 7.675781 -0.113281 6.796875 0.109375 5.828125 0.109375 Z M 5.828125 -1.0625 C 6.554688 -1.0625 7.207031 -1.226562 7.78125 -1.5625 C 8.363281 -1.90625 8.816406 -2.390625 9.140625 -3.015625 C 9.472656 -3.640625 9.640625 -4.363281 9.640625 -5.1875 C 9.640625 -6.007812 9.472656 -6.726562 9.140625 -7.34375 C 8.816406 -7.96875 8.367188 -8.445312 7.796875 -8.78125 C 7.222656 -9.125 6.566406 -9.296875 5.828125 -9.296875 C 5.097656 -9.296875 4.445312 -9.125 3.875 -8.78125 C 3.300781 -8.445312 2.847656 -7.96875 2.515625 -7.34375 C 2.179688 -6.726562 2.015625 -6.007812 2.015625 -5.1875 C 2.015625 -4.363281 2.179688 -3.640625 2.515625 -3.015625 C 2.847656 -2.390625 3.300781 -1.90625 3.875 -1.5625 C 4.457031 -1.226562 5.109375 -1.0625 5.828125 -1.0625 Z M 5.828125 -1.0625 "/></g></g></g><g fill="#3b7bf8" fill-opacity="1"><g transform="translate(304.075466, 206.307172)"><g><path d="M 2.5 -1.09375 L 6.109375 -1.09375 L 6.109375 0 L 1.140625 0 L 1.140625 -10.34375 L 2.5 -10.34375 Z M 2.5 -1.09375 "/></g></g></g><g fill="#3b7bf8" fill-opacity="1"><g transform="translate(312.712666, 206.307172)"><g><path d="M 2.46875 -10.34375 L 2.46875 -3.796875 C 2.46875 -2.878906 2.691406 -2.195312 3.140625 -1.75 C 3.585938 -1.300781 4.210938 -1.078125 5.015625 -1.078125 C 5.804688 -1.078125 6.425781 -1.300781 6.875 -1.75 C 7.332031 -2.195312 7.5625 -2.878906 7.5625 -3.796875 L 7.5625 -10.34375 L 8.90625 -10.34375 L 8.90625 -3.8125 C 8.90625 -2.945312 8.726562 -2.21875 8.375 -1.625 C 8.03125 -1.039062 7.5625 -0.601562 6.96875 -0.3125 C 6.382812 -0.03125 5.726562 0.109375 5 0.109375 C 4.269531 0.109375 3.609375 -0.03125 3.015625 -0.3125 C 2.429688 -0.601562 1.96875 -1.039062 1.625 -1.625 C 1.28125 -2.21875 1.109375 -2.945312 1.109375 -3.8125 L 1.109375 -10.34375 Z M 2.46875 -10.34375 "/></g></g></g><g fill="#3b7bf8" fill-opacity="1"><g transform="translate(324.956123, 206.307172)"><g><path d="M 7.515625 -10.34375 L 7.515625 -9.25 L 4.6875 -9.25 L 4.6875 0 L 3.34375 0 L 3.34375 -9.25 L 0.5 -9.25 L 0.5 -10.34375 Z M 7.515625 -10.34375 "/></g></g></g><g fill="#3b7bf8" fill-opacity="1"><g transform="translate(335.210942, 206.307172)"><g><path d="M 2.5 -10.34375 L 2.5 0 L 1.140625 0 L 1.140625 -10.34375 Z M 2.5 -10.34375 "/></g></g></g><g fill="#3b7bf8" fill-opacity="1"><g transform="translate(341.087804, 206.307172)"><g><path d="M 5.828125 0.109375 C 4.867188 0.109375 3.992188 -0.113281 3.203125 -0.5625 C 2.410156 -1.019531 1.785156 -1.648438 1.328125 -2.453125 C 0.867188 -3.265625 0.640625 -4.175781 0.640625 -5.1875 C 0.640625 -6.1875 0.867188 -7.085938 1.328125 -7.890625 C 1.785156 -8.703125 2.410156 -9.332031 3.203125 -9.78125 C 3.992188 -10.238281 4.867188 -10.46875 5.828125 -10.46875 C 6.796875 -10.46875 7.675781 -10.238281 8.46875 -9.78125 C 9.257812 -9.332031 9.882812 -8.707031 10.34375 -7.90625 C 10.800781 -7.101562 11.03125 -6.195312 11.03125 -5.1875 C 11.03125 -4.164062 10.800781 -3.253906 10.34375 -2.453125 C 9.882812 -1.648438 9.257812 -1.019531 8.46875 -0.5625 C 7.675781 -0.113281 6.796875 0.109375 5.828125 0.109375 Z M 5.828125 -1.0625 C 6.554688 -1.0625 7.207031 -1.226562 7.78125 -1.5625 C 8.363281 -1.90625 8.816406 -2.390625 9.140625 -3.015625 C 9.472656 -3.640625 9.640625 -4.363281 9.640625 -5.1875 C 9.640625 -6.007812 9.472656 -6.726562 9.140625 -7.34375 C 8.816406 -7.96875 8.367188 -8.445312 7.796875 -8.78125 C 7.222656 -9.125 6.566406 -9.296875 5.828125 -9.296875 C 5.097656 -9.296875 4.445312 -9.125 3.875 -8.78125 C 3.300781 -8.445312 2.847656 -7.96875 2.515625 -7.34375 C 2.179688 -6.726562 2.015625 -6.007812 2.015625 -5.1875 C 2.015625 -4.363281 2.179688 -3.640625 2.515625 -3.015625 C 2.847656 -2.390625 3.300781 -1.90625 3.875 -1.5625 C 4.457031 -1.226562 5.109375 -1.0625 5.828125 -1.0625 Z M 5.828125 -1.0625 "/></g></g></g><g fill="#3b7bf8" fill-opacity="1"><g transform="translate(354.978545, 206.307172)"><g><path d="M 9.28125 0 L 7.921875 0 L 2.5 -8.234375 L 2.5 0 L 1.140625 0 L 1.140625 -10.359375 L 2.5 -10.359375 L 7.921875 -2.140625 L 7.921875 -10.359375 L 9.28125 -10.359375 Z M 9.28125 0 "/></g></g></g></svg>